<svg width="84" height="85" viewBox="0 0 84 85" fill="none" xmlns="http://www.w3.org/2000/svg">
<path d="M41.8911 84.2178C49.1443 84.2179 56.2745 82.3444 62.5909 78.7789C68.9072 75.2134 74.1955 70.0768 77.9432 63.8669C81.691 57.657 83.7712 50.5843 83.9822 43.3341C84.1932 36.084 82.5279 28.9023 79.1476 22.4849C78.959 22.1357 78.6399 21.8752 78.26 21.7602C77.88 21.6453 77.4701 21.6852 77.1195 21.8713C76.7688 22.0573 76.506 22.3745 76.3882 22.7535C76.2705 23.1326 76.3074 23.5428 76.4908 23.8948C79.4515 29.5093 80.9967 35.7617 80.9922 42.1089C78.8492 93.9737 4.93261 93.9743 2.78996 42.1086C2.42779 13.1112 34.6728 -6.32484 60.1055 7.5097C60.4578 7.69662 60.8701 7.73591 61.2514 7.61891C61.6328 7.50191 61.952 7.23821 62.139 6.88582C62.3259 6.53343 62.3652 6.12122 62.2482 5.73986C62.1312 5.35851 61.8675 5.03925 61.5151 4.85232C55.4663 1.66148 48.7299 -0.00419136 41.8911 7.92032e-06C-13.964 2.30782 -13.9634 81.9111 41.8911 84.2178Z" fill="#C916CF"/>
<path d="M41.8908 30.0783C43.193 30.0775 44.4862 30.2936 45.7173 30.7179C46.0944 30.8477 46.5076 30.8225 46.866 30.6478C47.2245 30.473 47.4988 30.163 47.6288 29.786C48.2895 27.1257 43.6055 27.2318 41.8909 27.0703C21.9422 27.8948 21.9431 56.3247 41.8909 57.1483C45.8781 57.1439 49.7007 55.558 52.52 52.7386C55.3394 49.9192 56.9253 46.0966 56.9297 42.1094C56.7761 40.3637 56.8778 35.7286 54.229 36.3867C54.0423 36.451 53.87 36.5514 53.722 36.6822C53.5741 36.8131 53.4534 36.9718 53.3668 37.1493C53.2802 37.3269 53.2295 37.5197 53.2175 37.7169C53.2056 37.914 53.2326 38.1116 53.297 38.2983C53.7155 39.5251 53.9267 40.8132 53.9219 42.1094C53.3189 58.0456 30.4626 58.0462 29.8597 42.1093C29.8634 38.9196 31.1321 35.8616 33.3876 33.6061C35.6431 31.3507 38.7011 30.0819 41.8908 30.0783Z" fill="#C916CF"/>
<path d="M56.2902 19.152C56.386 18.9793 56.4468 18.7894 56.4692 18.5932C56.4916 18.397 56.4751 18.1982 56.4207 18.0084C56.3663 17.8186 56.275 17.6413 56.1521 17.4867C56.0291 17.3322 55.8769 17.2034 55.7042 17.1076C51.4761 14.7673 46.7234 13.5381 41.8909 13.5352C3.98922 15.1017 3.98972 69.1172 41.8911 70.683C46.8616 70.6859 51.7469 69.3913 56.0638 66.9274C60.3806 64.4634 63.9796 60.9153 66.5049 56.634C69.0301 52.3527 70.3941 47.4864 70.4621 42.5163C70.53 37.5462 69.2995 32.6444 66.8923 28.2957C66.797 28.1222 66.6683 27.9692 66.5137 27.8455C66.3592 27.7218 66.1817 27.6298 65.9915 27.5749C65.8012 27.52 65.6021 27.5032 65.4053 27.5254C65.2086 27.5476 65.0182 27.6085 64.8451 27.7045C64.6719 27.8005 64.5194 27.9297 64.3964 28.0848C64.2733 28.2399 64.182 28.4177 64.1279 28.6082C64.0737 28.7986 64.0576 28.9978 64.0807 29.1945C64.1037 29.3911 64.1653 29.5813 64.262 29.754C73.7944 46.2861 60.9889 68.0063 41.8905 67.6749C35.1123 67.6674 28.6139 64.9714 23.821 60.1785C19.0282 55.3856 16.3322 48.8872 16.3247 42.1091C15.9972 23.0112 37.7116 10.2042 54.2461 19.7384C54.4187 19.8345 54.6086 19.8955 54.8049 19.9181C55.0012 19.9406 55.2 19.9242 55.3899 19.8697C55.5798 19.8152 55.7571 19.7237 55.9116 19.6006C56.0661 19.4774 56.1947 19.325 56.2902 19.152Z" fill="#C916CF"/>
<path d="M59.222 14.8871L59.7742 22.1002L40.828 41.0466C40.5555 41.3306 40.4052 41.71 40.4093 42.1035C40.4133 42.497 40.5715 42.8732 40.8497 43.1515C41.128 43.4298 41.5043 43.5879 41.8978 43.5919C42.2913 43.5959 42.6707 43.4456 42.9547 43.1731L61.9008 24.2268L69.114 24.7791C69.3301 24.7957 69.5473 24.7653 69.7507 24.69C69.954 24.6147 70.1386 24.4964 70.2918 24.343L81.2376 13.398C81.4368 13.1929 81.5739 12.9356 81.6329 12.6559C81.692 12.3762 81.6707 12.0855 81.5714 11.8174C81.4721 11.5493 81.299 11.3148 81.072 11.1409C80.8451 10.9671 80.5735 10.8611 80.2888 10.8352L73.6726 10.3285L73.166 3.7122C73.1399 3.42757 73.0338 3.15613 72.86 2.92925C72.6861 2.70237 72.4516 2.52932 72.1836 2.43011C71.9155 2.33089 71.6249 2.30956 71.3452 2.36857C71.0655 2.42758 70.8083 2.56453 70.6032 2.76359L59.6582 13.7092C59.5047 13.8624 59.3863 14.047 59.311 14.2504C59.2357 14.4537 59.2053 14.6709 59.222 14.8871ZM70.4167 7.20316C71.0185 14.2068 69.8341 12.9739 76.798 13.5844L68.6543 21.7273L62.7276 21.2735L62.2738 15.3468L70.4167 7.20316Z" fill="#C916CF"/>
</svg>
