<svg width="85" height="81" viewBox="0 0 85 81" fill="none" xmlns="http://www.w3.org/2000/svg">
<path d="M84.8399 38.7862C80.5594 31.3588 74.3849 25.2 66.9465 20.9384C59.5082 16.6768 51.0724 14.465 42.5 14.5287C33.9276 14.465 25.4918 16.6768 18.0535 20.9384C10.6151 25.2 4.44063 31.3588 0.160092 38.7862C0.0548082 38.9971 0 39.2295 0 39.4651C0 39.7008 0.0548082 39.9332 0.160092 40.144C4.44063 47.5714 10.6151 53.7302 18.0535 57.9918C25.4918 62.2534 33.9276 64.4652 42.5 64.4016C51.0724 64.4652 59.5082 62.2534 66.9465 57.9918C74.3849 53.7302 80.5594 47.5714 84.8399 40.144C84.9452 39.9332 85 39.7008 85 39.4651C85 39.2295 84.9452 38.9971 84.8399 38.7862ZM42.5 61.3658C34.6206 61.4331 26.8592 59.4494 19.9783 55.6097C13.0974 51.7699 7.33377 46.2062 3.25361 39.4651C7.33378 32.724 13.0974 27.1603 19.9783 23.3206C26.8592 19.4808 34.6206 17.4971 42.5 17.5644C50.3794 17.4971 58.1408 19.4808 65.0217 23.3206C71.9026 27.1603 77.6662 32.724 81.7464 39.4651C77.6662 46.2062 71.9026 51.7699 65.0217 55.6097C58.1408 59.4494 50.3794 61.4331 42.5 61.3658Z" fill="#C916CF"/>
<path d="M42 31C40.4178 31 38.871 31.4692 37.5554 32.3482C36.2398 33.2273 35.2145 34.4767 34.609 35.9385C34.0035 37.4003 33.845 39.0089 34.1537 40.5607C34.4624 42.1126 35.2243 43.538 36.3431 44.6569C37.462 45.7757 38.8874 46.5376 40.4393 46.8463C41.9911 47.155 43.5997 46.9965 45.0615 46.391C46.5233 45.7855 47.7727 44.7601 48.6518 43.4446C49.5308 42.129 50 40.5822 50 39C49.9977 36.879 49.1541 34.8455 47.6543 33.3457C46.1545 31.8459 44.121 31.0023 42 31ZM42 44.3333C40.9452 44.3333 39.914 44.0205 39.037 43.4345C38.1599 42.8485 37.4763 42.0155 37.0726 41.041C36.669 40.0664 36.5634 38.9941 36.7691 37.9595C36.9749 36.925 37.4829 35.9746 38.2288 35.2288C38.9746 34.4829 39.925 33.9749 40.9595 33.7691C41.9941 33.5634 43.0664 33.669 44.041 34.0726C45.0155 34.4763 45.8485 35.1599 46.4345 36.037C47.0205 36.914 47.3333 37.9452 47.3333 39C47.3318 40.414 46.7694 41.7697 45.7696 42.7696C44.7697 43.7694 43.414 44.3318 42 44.3333Z" fill="#C916CF"/>
<path d="M42.2143 21C38.6118 21 35.0903 22.0682 32.095 24.0697C29.0997 26.0711 26.7651 28.9158 25.3865 32.244C24.0079 35.5722 23.6472 39.2345 24.35 42.7677C25.0528 46.3009 26.7875 49.5464 29.3348 52.0937C31.8822 54.641 35.1276 56.3758 38.6609 57.0786C42.1941 57.7814 45.8564 57.4207 49.1846 56.0421C52.5128 54.6635 55.3575 52.3289 57.3589 49.3336C59.3603 46.3383 60.4286 42.8167 60.4286 39.2143C60.4232 34.3852 58.5024 29.7555 55.0878 26.3408C51.6731 22.9261 47.0434 21.0054 42.2143 21ZM42.2143 54.3928C39.2123 54.3928 36.2776 53.5026 33.7815 51.8348C31.2854 50.167 29.3399 47.7964 28.1911 45.0229C27.0423 42.2493 26.7417 39.1974 27.3274 36.2531C27.913 33.3087 29.3587 30.6042 31.4814 28.4814C33.6042 26.3587 36.3087 24.913 39.2531 24.3274C42.1975 23.7417 45.2494 24.0423 48.0229 25.1911C50.7964 26.3399 53.167 28.2854 54.8348 30.7815C56.5027 33.2776 57.3929 36.2122 57.3929 39.2143C57.3883 43.2385 55.7876 47.0965 52.9421 49.9421C50.0965 52.7876 46.2385 54.3882 42.2143 54.3928Z" fill="#C916CF"/>
<path d="M42.4998 10.625C42.6991 10.6251 42.8965 10.5858 43.0807 10.5096C43.2649 10.4333 43.4322 10.3215 43.5732 10.1805C43.7142 10.0396 43.826 9.87224 43.9022 9.68806C43.9785 9.50388 44.0177 9.30649 44.0176 9.10714V1.51786C44.0176 1.1153 43.8577 0.729224 43.5731 0.44457C43.2884 0.159917 42.9024 0 42.4998 0C42.0972 0 41.7112 0.159917 41.4265 0.44457C41.1418 0.729224 40.9819 1.1153 40.9819 1.51786V9.10714C40.9819 9.30649 41.0211 9.50388 41.0974 9.68806C41.1736 9.87224 41.2854 10.0396 41.4264 10.1805C41.5673 10.3215 41.7347 10.4333 41.9189 10.5096C42.103 10.5858 42.3004 10.6251 42.4998 10.625Z" fill="#C916CF"/>
<path d="M15.4827 14.5708C15.6021 14.7307 15.7519 14.8656 15.9235 14.9675C16.0951 15.0695 16.2851 15.1367 16.4827 15.1651C16.6803 15.1935 16.8816 15.1827 17.075 15.1332C17.2683 15.0838 17.4501 14.9967 17.6098 14.8769C17.7694 14.7571 17.9039 14.6069 18.0055 14.4351C18.107 14.2632 18.1737 14.073 18.2016 13.8754C18.2296 13.6777 18.2183 13.4765 18.1683 13.2832C18.1184 13.09 18.0308 12.9084 17.9107 12.749L13.3572 6.67771C13.1126 6.36431 12.7547 6.1594 12.3606 6.107C11.9665 6.0546 11.5676 6.1589 11.2496 6.39749C10.9316 6.63608 10.7199 6.98991 10.6599 7.38294C10.6 7.77596 10.6967 8.17681 10.9291 8.49934L15.4827 14.5708Z" fill="#C916CF"/>
<path d="M68.302 15.1774C68.5378 15.1778 68.7706 15.1232 68.9816 15.0178C69.1926 14.9124 69.3761 14.7592 69.5174 14.5704L74.0709 8.49904C74.3032 8.17653 74.3998 7.77576 74.3399 7.38282C74.2799 6.98988 74.0683 6.63613 73.7503 6.39757C73.4324 6.159 73.0336 6.05466 72.6396 6.10695C72.2455 6.15924 71.8877 6.364 71.643 6.67723L67.0896 12.7487C66.9242 12.975 66.8243 13.2424 66.8008 13.5217C66.7773 13.801 66.8311 14.0814 66.9562 14.3322C67.0814 14.5829 67.2732 14.7944 67.5106 14.9435C67.7479 15.0926 68.0217 15.1735 68.302 15.1774Z" fill="#C916CF"/>
<path d="M42.5 70.1797C42.697 70.1796 42.8921 70.2166 43.0741 70.2883C43.2561 70.3601 43.4215 70.4653 43.5608 70.598C43.7001 70.7307 43.8106 70.8882 43.8859 71.0615C43.9613 71.2349 44.0001 71.4206 44 71.6083V78.7511C44 79.13 43.842 79.4934 43.5607 79.7613C43.2794 80.0292 42.8978 80.1797 42.5 80.1797C42.1022 80.1797 41.7206 80.0292 41.4393 79.7613C41.158 79.4934 41 79.13 41 78.7511V71.6083C40.9999 71.4206 41.0387 71.2349 41.1141 71.0615C41.1894 70.8882 41.2999 70.7307 41.4392 70.598C41.5785 70.4653 41.7439 70.3601 41.9259 70.2883C42.1079 70.2166 42.303 70.1796 42.5 70.1797Z" fill="#C916CF"/>
<path d="M15.4733 65.7837C15.5836 65.6252 15.7221 65.4917 15.8807 65.3907C16.0393 65.2897 16.2149 65.2232 16.3975 65.195C16.5801 65.1669 16.7661 65.1776 16.9449 65.2266C17.1236 65.2756 17.2916 65.3618 17.4391 65.4805C17.5867 65.5992 17.711 65.7479 17.8049 65.9181C17.8987 66.0883 17.9603 66.2767 17.9862 66.4724C18.012 66.6682 18.0016 66.8675 17.9554 67.0589C17.9093 67.2503 17.8283 67.4301 17.7172 67.588L13.5089 73.6013C13.2828 73.9117 12.9521 74.1147 12.5879 74.1666C12.2236 74.2185 11.8549 74.1152 11.561 73.8788C11.2671 73.6425 11.0714 73.2921 11.016 72.9028C10.9606 72.5136 11.05 72.1165 11.2648 71.7971L15.4733 65.7837Z" fill="#C916CF"/>
<path d="M68.3946 65.1797C68.613 65.1792 68.8284 65.2334 69.0237 65.3378C69.2191 65.4422 69.3889 65.594 69.5198 65.7811L73.7349 71.7965C73.95 72.1161 74.0394 72.5132 73.9839 72.9025C73.9284 73.2918 73.7325 73.6423 73.4382 73.8787C73.1439 74.115 72.7747 74.2184 72.4099 74.1666C72.0452 74.1148 71.714 73.9119 71.4875 73.6016L67.2723 67.586C67.1192 67.3618 67.0267 67.0968 67.005 66.8201C66.9832 66.5434 67.033 66.2656 67.1489 66.0171C67.2648 65.7686 67.4423 65.5591 67.662 65.4114C67.8817 65.2637 68.1352 65.1835 68.3946 65.1797Z" fill="#C916CF"/>
</svg>
