<svg width="180" height="180" viewBox="0 0 180 180" fill="none" xmlns="http://www.w3.org/2000/svg">
<circle cx="90" cy="90" r="90" fill="black" fill-opacity="0.17"/>
<path d="M92.7645 25.1367L91.0541 24.9817L97.2212 11.9577L98.9052 12.1102L102.632 26.0304L100.921 25.8755L97.9228 14.17L97.8175 14.1605L92.7645 25.1367ZM93.8726 19.9313L100.767 20.5557L100.635 22.0029L93.7415 21.3785L93.8726 19.9313Z" fill="white"/>
<path d="M103.908 26.504L107.401 13.4357L108.907 13.8382L107.618 18.6623L107.745 18.6964C107.901 18.5558 108.113 18.3798 108.379 18.1684C108.65 17.9538 108.999 17.7918 109.425 17.6823C109.856 17.5697 110.391 17.5986 111.029 17.7692C111.854 17.9899 112.526 18.3906 113.046 18.9716C113.565 19.5526 113.9 20.2688 114.051 21.1204C114.201 21.972 114.139 22.9126 113.864 23.9421C113.586 24.98 113.169 25.8326 112.613 26.4996C112.057 27.1625 111.411 27.6187 110.674 27.8685C109.938 28.1139 109.162 28.1275 108.345 27.9091C107.716 27.7408 107.24 27.5018 106.917 27.1922C106.595 26.8783 106.368 26.56 106.235 26.2374C106.104 25.9106 106.007 25.643 105.944 25.4348L105.765 25.387L105.363 26.893L103.908 26.504ZM106.698 21.9991C106.5 22.7393 106.434 23.4213 106.5 24.0451C106.567 24.6646 106.766 25.1897 107.098 25.6202C107.43 26.0464 107.899 26.3403 108.503 26.5018C109.132 26.6701 109.702 26.6446 110.212 26.4254C110.727 26.2031 111.167 25.8374 111.531 25.3285C111.9 24.8165 112.178 24.2116 112.365 23.5139C112.549 22.8248 112.609 22.1753 112.544 21.5654C112.484 20.9524 112.285 20.4274 111.946 19.9903C111.612 19.5502 111.127 19.2448 110.488 19.0742C109.876 18.9105 109.32 18.9282 108.82 19.1272C108.321 19.3221 107.891 19.6676 107.531 20.1637C107.171 20.6557 106.894 21.2675 106.698 21.9991Z" fill="white"/>
<path d="M117.428 31.2794C116.592 30.905 115.948 30.3776 115.495 29.6972C115.047 29.0186 114.806 28.2424 114.772 27.3687C114.743 26.4967 114.943 25.5825 115.371 24.6261C115.803 23.6616 116.355 22.8979 117.027 22.3351C117.702 21.7741 118.443 21.4351 119.248 21.318C120.057 21.2027 120.88 21.3323 121.716 21.7066C122.551 22.081 123.194 22.6075 123.642 23.2861C124.095 23.9665 124.335 24.7447 124.363 25.6207C124.394 26.4984 124.194 27.4196 123.762 28.3841C123.334 29.3405 122.783 30.0973 122.109 30.6542C121.439 31.213 120.699 31.55 119.89 31.6653C119.085 31.7824 118.264 31.6538 117.428 31.2794ZM118.001 30.0014C118.636 30.2858 119.231 30.357 119.787 30.2151C120.342 30.0731 120.838 29.781 121.272 29.3387C121.707 28.8964 122.062 28.3658 122.34 27.7469C122.617 27.128 122.776 26.5072 122.819 25.8846C122.861 25.2619 122.751 24.694 122.489 24.1808C122.227 23.6677 121.778 23.269 121.143 22.9846C120.508 22.7002 119.912 22.631 119.354 22.777C118.797 22.9229 118.3 23.2191 117.864 23.6654C117.427 24.1117 117.071 24.6443 116.794 25.2632C116.516 25.8821 116.357 26.5009 116.317 27.1195C116.276 27.7382 116.388 28.3021 116.652 28.8112C116.916 29.3203 117.366 29.717 118.001 30.0014Z" fill="white"/>
<path d="M130.653 33.8538L133.928 28.8295L135.234 29.6808L129.694 38.18L128.388 37.3288L129.326 35.8901L129.237 35.8324C128.757 36.1342 128.207 36.2992 127.59 36.3276C126.974 36.3523 126.346 36.1554 125.704 35.737C125.173 35.3908 124.776 34.9668 124.515 34.4651C124.255 33.9597 124.162 33.3939 124.233 32.7679C124.307 32.1381 124.58 31.4617 125.051 30.7387L128.572 25.3381L129.878 26.1893L126.415 31.5014C126.011 32.1211 125.862 32.7284 125.968 33.3233C126.078 33.9207 126.405 34.3961 126.947 34.7495C127.271 34.9611 127.656 35.0934 128.1 35.1462C128.547 35.2014 128.997 35.132 129.449 34.938C129.905 34.7464 130.307 34.385 130.653 33.8538Z" fill="white"/>
<path d="M141.194 34.6591L140.346 35.6713L136.317 32.2929L137.166 31.2807L141.194 34.6591ZM139.902 30.4029L141.096 31.4045L134.883 38.8139C134.6 39.1513 134.437 39.4454 134.393 39.6961C134.355 39.9464 134.39 40.1652 134.497 40.3527C134.611 40.5397 134.755 40.7067 134.931 40.8539C135.062 40.9642 135.176 41.048 135.271 41.1053C135.37 41.1591 135.449 41.2022 135.508 41.2345L134.851 42.5112C134.745 42.4737 134.606 42.4092 134.436 42.3179C134.262 42.23 134.064 42.0927 133.841 41.9059C133.504 41.623 133.234 41.2732 133.032 40.8565C132.833 40.4426 132.752 39.998 132.788 39.5229C132.828 39.0505 133.038 38.5883 133.417 38.1362L139.902 30.4029Z" fill="white"/>
<path d="M149.872 38.6032L151.07 40.1479L145.017 50.6633L145.114 50.7885L156.804 47.5374L158.002 49.0821L147.314 57.3744L146.375 56.1637L154.495 49.8635L154.414 49.7591L143.703 52.7194L142.796 51.5505L148.325 41.9104L148.244 41.806L140.124 48.1062L139.184 46.8955L149.872 38.6032Z" fill="white"/>
<path d="M149.328 62.8436C148.865 61.9826 148.656 61.1377 148.7 60.3089C148.75 59.482 149.028 58.7152 149.533 58.0087C150.044 57.3039 150.757 56.7055 151.672 56.2134C152.588 55.7212 153.484 55.4542 154.361 55.4124C155.245 55.3723 156.044 55.5476 156.759 55.9381C157.48 56.3304 158.057 56.9299 158.491 57.7366C158.741 58.202 158.911 58.7033 159 59.2404C159.088 59.7776 159.058 60.3262 158.91 60.8862C158.765 61.4441 158.467 61.9869 158.015 62.5145C157.564 63.0421 156.921 63.5301 156.088 63.9784L155.506 64.2913L151.802 57.4034L152.989 56.7653L155.942 62.2569C156.446 61.9858 156.842 61.6431 157.129 61.2287C157.418 60.8182 157.578 60.3672 157.609 59.8758C157.642 59.3882 157.525 58.8961 157.258 58.3997C156.964 57.8529 156.573 57.4527 156.087 57.1992C155.607 56.9475 155.094 56.8308 154.549 56.8489C154.004 56.8671 153.485 57.0086 152.992 57.2735L152.201 57.6989C151.526 58.0617 151.017 58.4857 150.673 58.9707C150.334 59.4575 150.156 59.9761 150.137 60.5263C150.122 61.0744 150.263 61.6258 150.561 62.1804C150.755 62.5411 150.981 62.8398 151.238 63.0764C151.501 63.3149 151.793 63.4855 152.113 63.5883C152.437 63.689 152.786 63.7141 153.159 63.6636L153.499 65.1902C152.974 65.2924 152.453 65.2705 151.934 65.1244C151.42 64.9761 150.937 64.7107 150.486 64.3281C150.039 63.9434 149.653 63.4486 149.328 62.8436Z" fill="white"/>
<path d="M159.732 72.1795L158.373 72.6957L156.271 67.1634L157.63 66.6472L159.732 72.1795Z" fill="white"/>
<path d="M155.698 87.6147L155.715 85.8974L169.192 90.9981L169.176 92.6889L155.6 97.5219L155.617 95.8046L167.043 91.8752L167.044 91.7695L155.698 87.6147ZM160.975 88.301L160.907 95.2228L159.454 95.2085L159.522 88.2866L160.975 88.301Z" fill="white"/>
<path d="M155.23 98.8679L168.539 101.289L168.26 102.823L163.347 101.929L163.324 102.059C163.476 102.203 163.669 102.399 163.901 102.648C164.137 102.901 164.327 103.235 164.471 103.651C164.618 104.071 164.632 104.607 164.514 105.257C164.361 106.097 164.016 106.8 163.479 107.364C162.943 107.929 162.256 108.321 161.419 108.54C160.583 108.76 159.64 108.774 158.592 108.583C157.535 108.391 156.651 108.044 155.941 107.544C155.235 107.044 154.728 106.437 154.419 105.723C154.115 105.009 154.039 104.237 154.19 103.405C154.307 102.764 154.506 102.27 154.789 101.923C155.075 101.577 155.374 101.324 155.685 101.166C156 101.009 156.259 100.89 156.461 100.811L156.494 100.629L154.961 100.35L155.23 98.8679ZM159.947 101.284C159.193 101.146 158.508 101.136 157.891 101.252C157.279 101.369 156.772 101.61 156.37 101.976C155.972 102.342 155.717 102.832 155.605 103.448C155.489 104.089 155.56 104.655 155.82 105.145C156.084 105.641 156.484 106.049 157.021 106.37C157.561 106.697 158.186 106.925 158.897 107.054C159.599 107.182 160.251 107.189 160.854 107.075C161.46 106.966 161.967 106.724 162.375 106.351C162.786 105.983 163.051 105.474 163.17 104.824C163.283 104.2 163.22 103.647 162.981 103.165C162.747 102.684 162.367 102.283 161.844 101.964C161.324 101.646 160.692 101.419 159.947 101.284Z" fill="white"/>
<path d="M151.555 112.763C151.861 111.9 152.335 111.215 152.976 110.709C153.616 110.207 154.371 109.904 155.239 109.8C156.105 109.701 157.033 109.826 158.021 110.175C159.017 110.528 159.823 111.017 160.438 111.641C161.052 112.269 161.449 112.98 161.631 113.773C161.811 114.57 161.748 115.4 161.443 116.264C161.137 117.127 160.664 117.81 160.024 118.312C159.382 118.818 158.626 119.12 157.755 119.218C156.883 119.321 155.949 119.195 154.952 118.843C153.964 118.493 153.166 118.005 152.556 117.378C151.945 116.755 151.549 116.045 151.369 115.248C151.188 114.455 151.25 113.627 151.555 112.763ZM152.875 113.231C152.643 113.886 152.62 114.486 152.806 115.028C152.993 115.57 153.324 116.04 153.8 116.438C154.276 116.835 154.833 117.147 155.473 117.373C156.112 117.6 156.743 117.709 157.368 117.701C157.992 117.693 158.549 117.537 159.039 117.234C159.529 116.932 159.891 116.452 160.123 115.796C160.355 115.14 160.376 114.541 160.185 113.997C159.995 113.453 159.66 112.981 159.179 112.583C158.699 112.184 158.14 111.871 157.501 111.645C156.861 111.419 156.232 111.31 155.612 111.32C154.992 111.329 154.439 111.486 153.953 111.79C153.467 112.095 153.107 112.575 152.875 113.231Z" fill="white"/>
<path d="M150.064 126.143L155.335 129.003L154.592 130.373L145.675 125.534L146.418 124.164L147.927 124.983L147.978 124.89C147.639 124.436 147.43 123.901 147.352 123.288C147.278 122.677 147.424 122.034 147.789 121.361C148.092 120.804 148.482 120.374 148.961 120.073C149.444 119.774 150.001 119.635 150.63 119.656C151.264 119.68 151.96 119.897 152.719 120.309L158.385 123.384L157.641 124.754L152.068 121.729C151.418 121.376 150.801 121.277 150.216 121.431C149.63 121.588 149.182 121.951 148.873 122.52C148.688 122.861 148.588 123.255 148.571 123.701C148.551 124.152 148.657 124.595 148.886 125.03C149.114 125.469 149.507 125.84 150.064 126.143Z" fill="white"/>
<path d="M150.11 136.7L149.033 135.935L152.078 131.648L153.155 132.413L150.11 136.7ZM154.249 135.07L153.347 136.341L145.463 130.741C145.104 130.487 144.797 130.347 144.544 130.324C144.292 130.307 144.076 130.359 143.898 130.481C143.721 130.609 143.566 130.766 143.433 130.953C143.334 131.093 143.259 131.213 143.21 131.313C143.164 131.415 143.127 131.497 143.1 131.559L141.775 131.006C141.804 130.897 141.857 130.754 141.934 130.577C142.008 130.397 142.129 130.188 142.297 129.952C142.552 129.592 142.879 129.295 143.278 129.06C143.675 128.829 144.111 128.712 144.588 128.711C145.062 128.712 145.54 128.884 146.021 129.226L154.249 135.07Z" fill="white"/>
<path d="M146.872 145.673L145.428 146.992L134.461 141.799L134.344 141.906L138.521 153.298L137.077 154.616L127.956 144.627L129.087 143.594L136.018 151.183L136.115 151.094L132.307 140.654L133.399 139.656L143.451 144.396L143.549 144.307L136.619 136.717L137.75 135.684L146.872 145.673Z" fill="white"/>
<path d="M123.566 147.926C124.387 147.395 125.212 147.119 126.042 147.096C126.87 147.08 127.657 147.295 128.401 147.742C129.145 148.194 129.799 148.857 130.363 149.73C130.927 150.603 131.265 151.474 131.377 152.346C131.488 153.223 131.378 154.034 131.046 154.778C130.713 155.528 130.162 156.152 129.393 156.649C128.949 156.936 128.463 157.145 127.935 157.277C127.406 157.408 126.857 157.423 126.287 157.319C125.719 157.22 125.154 156.966 124.592 156.559C124.03 156.151 123.492 155.55 122.978 154.755L122.619 154.2L129.187 149.955L129.919 151.087L124.682 154.471C124.993 154.952 125.366 155.319 125.802 155.572C126.235 155.827 126.697 155.95 127.19 155.941C127.678 155.935 128.159 155.779 128.633 155.473C129.154 155.136 129.522 154.715 129.735 154.21C129.947 153.711 130.023 153.19 129.961 152.648C129.899 152.106 129.716 151.6 129.412 151.131L128.925 150.376C128.509 149.733 128.045 149.259 127.534 148.955C127.022 148.657 126.49 148.521 125.94 148.546C125.393 148.575 124.855 148.76 124.326 149.102C123.982 149.324 123.702 149.573 123.487 149.848C123.271 150.13 123.124 150.435 123.047 150.762C122.973 151.093 122.976 151.443 123.056 151.81L121.562 152.273C121.418 151.758 121.398 151.236 121.502 150.707C121.608 150.182 121.834 149.68 122.179 149.2C122.527 148.723 122.989 148.299 123.566 147.926Z" fill="white"/>
<path d="M115.103 157.888L114.479 156.576L119.823 154.033L120.447 155.345L115.103 157.888Z" fill="white"/>
<path d="M93.6909 155.845L95.4083 155.85L90.3981 169.361L88.7072 169.356L83.7833 155.813L85.5006 155.818L89.5066 167.219L89.6123 167.219L93.6909 155.845ZM93.04 161.127L86.1179 161.105L86.1225 159.651L93.0446 159.674L93.04 161.127Z" fill="white"/>
<path d="M82.4188 155.45L80.0858 168.775L78.5503 168.506L79.4115 163.587L79.2814 163.564C79.1383 163.718 78.9434 163.912 78.6968 164.146C78.4451 164.384 78.1119 164.576 77.6974 164.722C77.2777 164.872 76.7426 164.89 76.092 164.776C75.2505 164.629 74.5456 164.289 73.9774 163.756C73.4091 163.222 73.0125 162.538 72.7877 161.703C72.5629 160.868 72.5424 159.926 72.7261 158.876C72.9115 157.818 73.2521 156.932 73.748 156.219C74.2432 155.509 74.8468 154.998 75.5588 154.685C76.2701 154.376 77.0421 154.294 77.8749 154.44C78.5169 154.552 79.0122 154.749 79.3611 155.029C79.7091 155.313 79.9633 155.61 80.1237 155.92C80.2833 156.234 80.4035 156.492 80.4844 156.694L80.6666 156.726L80.9354 155.19L82.4188 155.45ZM80.0345 160.182C80.1666 159.428 80.1726 158.743 80.0524 158.127C79.9314 157.516 79.6869 157.01 79.3188 156.611C78.9499 156.215 78.4575 155.963 77.8416 155.856C77.1997 155.743 76.6344 155.819 76.1457 156.082C75.652 156.348 75.2462 156.751 74.9283 157.29C74.6054 157.833 74.3816 158.46 74.257 159.171C74.134 159.874 74.1316 160.526 74.2497 161.128C74.3628 161.733 74.6073 162.239 74.9833 162.644C75.3542 163.053 75.865 163.315 76.5156 163.429C77.1402 163.538 77.6928 163.472 78.1733 163.23C78.653 162.992 79.0507 162.61 79.3663 162.084C79.6811 161.562 79.9039 160.929 80.0345 160.182Z" fill="white"/>
<path d="M68.5028 151.873C69.3682 152.173 70.0562 152.642 70.5667 153.28C71.0731 153.917 71.3811 154.669 71.4906 155.537C71.596 156.403 71.4772 157.331 71.1341 158.321C70.7881 159.32 70.3051 160.129 69.6851 160.748C69.0609 161.366 68.3529 161.768 67.5611 161.955C66.7652 162.141 65.9345 162.084 65.069 161.784C64.2036 161.484 63.5177 161.016 63.0113 160.379C62.5008 159.741 62.1936 158.987 62.0896 158.116C61.9815 157.245 62.1004 156.31 62.4464 155.311C62.7895 154.321 63.2724 153.519 63.8952 152.905C64.5137 152.29 65.221 151.889 66.017 151.704C66.8087 151.517 67.6374 151.573 68.5028 151.873ZM68.0444 153.196C67.387 152.968 66.7877 152.949 66.2465 153.139C65.7054 153.329 65.2377 153.664 64.8436 154.142C64.4494 154.621 64.1413 155.181 63.9193 155.821C63.6973 156.462 63.5924 157.094 63.6046 157.718C63.6167 158.342 63.7759 158.899 64.0821 159.387C64.3883 159.875 64.8701 160.233 65.5275 160.461C66.1849 160.689 66.7849 160.705 67.3275 160.511C67.8701 160.317 68.3392 159.979 68.7348 159.496C69.1304 159.013 69.4392 158.451 69.6612 157.811C69.8832 157.17 69.9874 156.54 69.9738 155.92C69.9602 155.3 69.7996 154.748 69.4919 154.264C69.1843 153.78 68.7018 153.424 68.0444 153.196Z" fill="white"/>
<path d="M55.112 150.47L52.2868 155.76L50.9118 155.026L55.691 146.077L57.066 146.811L56.2571 148.326L56.3503 148.376C56.8027 148.033 57.3354 147.821 57.9483 147.739C58.5591 147.661 59.2024 147.802 59.8783 148.163C60.4376 148.462 60.8695 148.85 61.1738 149.327C61.4761 149.808 61.6188 150.363 61.6019 150.993C61.5829 151.627 61.3701 152.324 60.9635 153.086L57.9268 158.772L56.5517 158.038L59.5387 152.445C59.8872 151.792 59.9826 151.174 59.8249 150.591C59.6634 150.005 59.2971 149.56 58.7261 149.255C58.3843 149.073 57.99 148.974 57.5432 148.96C57.0925 148.944 56.6503 149.053 56.2165 149.285C55.7789 149.516 55.4107 149.911 55.112 150.47Z" fill="white"/>
<path d="M44.556 150.588L45.3137 149.506L49.6206 152.522L48.8629 153.604L44.556 150.588ZM46.2135 154.716L44.9366 153.822L50.4828 145.901C50.7354 145.54 50.8725 145.233 50.8942 144.979C50.9097 144.727 50.856 144.512 50.733 144.334C50.6039 144.158 50.4455 144.004 50.2579 143.873C50.1173 143.774 49.9968 143.701 49.8965 143.652C49.7937 143.607 49.7115 143.571 49.6498 143.544L50.1932 142.215C50.3025 142.243 50.4461 142.295 50.6239 142.371C50.8043 142.444 51.0135 142.563 51.2516 142.73C51.6123 142.983 51.9115 143.308 52.1491 143.705C52.3832 144.1 52.5028 144.536 52.5078 145.013C52.5091 145.487 52.3406 145.965 52.0022 146.449L46.2135 154.716Z" fill="white"/>
<path d="M35.5621 147.407L34.2342 145.972L39.3533 134.971L39.2456 134.855L27.8818 139.107L26.5539 137.672L36.4824 128.485L37.5232 129.609L29.9799 136.59L30.0696 136.687L40.4841 132.809L41.489 133.895L36.8168 143.978L36.9065 144.075L44.4498 137.095L45.4906 138.219L35.5621 147.407Z" fill="white"/>
<path d="M33.151 124.107C33.6872 124.924 33.9692 125.748 33.9972 126.577C34.0191 127.405 33.8092 128.193 33.3676 128.941C32.9199 129.688 32.2615 130.346 31.3926 130.916C30.5236 131.486 29.6539 131.83 28.7834 131.948C27.9068 132.065 27.0955 131.96 26.3492 131.633C25.5969 131.305 24.9696 130.758 24.4673 129.992C24.1775 129.55 23.9649 129.065 23.8297 128.538C23.6944 128.011 23.6765 127.462 23.7761 126.891C23.8719 126.322 24.1217 125.756 24.5253 125.191C24.9289 124.626 25.5265 124.084 26.3182 123.565L26.8705 123.202L31.1595 129.742L30.0328 130.481L26.6132 125.267C26.1345 125.581 25.7702 125.957 25.5202 126.394C25.2678 126.829 25.1477 127.292 25.1598 127.784C25.1696 128.273 25.3291 128.753 25.6382 129.224C25.9787 129.743 26.4022 130.108 26.9087 130.318C27.4091 130.527 27.9301 130.599 28.4716 130.533C29.0131 130.468 29.5177 130.281 29.9853 129.975L30.7365 129.482C31.3772 129.062 31.8478 128.595 32.1484 128.082C32.443 127.568 32.5758 127.035 32.547 126.486C32.5144 125.938 32.3255 125.401 31.9801 124.875C31.7555 124.532 31.5048 124.254 31.2279 124.041C30.945 123.826 30.6395 123.682 30.3115 123.607C29.9799 123.535 29.6306 123.541 29.2635 123.623L28.7911 122.132C29.3051 121.985 29.8268 121.961 30.3561 122.061C30.8817 122.164 31.3857 122.387 31.868 122.729C32.3466 123.073 32.7743 123.532 33.151 124.107Z" fill="white"/>
<path d="M22.1564 115.721L23.4644 115.088L26.0432 120.415L24.7353 121.048L22.1564 115.721Z" fill="white"/>
<path d="M25.0352 94.3053L25.0412 96.0226L11.4966 91.103L11.4907 89.4121L25.0004 84.3977L25.0065 86.115L13.6335 90.1972L13.6339 90.3029L25.0352 94.3053ZM19.7489 93.6897L19.7246 86.7676L21.1777 86.7625L21.202 93.6846L19.7489 93.6897Z" fill="white"/>
<path d="M25.3529 83.0179L12.0132 80.7735L12.2718 79.2363L17.196 80.0648L17.218 79.9345C17.0633 79.7924 16.8681 79.5988 16.6325 79.3538C16.3933 79.1037 16.199 78.7718 16.0498 78.3582C15.897 77.9396 15.8754 77.4046 15.985 76.7532C16.1267 75.9108 16.4622 75.2037 16.9916 74.6319C17.5209 74.0601 18.2024 73.659 19.036 73.4286C19.8695 73.1982 20.8118 73.1715 21.8626 73.3483C22.9222 73.5265 23.8103 73.8613 24.5269 74.3525C25.2392 74.8429 25.7544 75.4431 26.0726 76.153C26.3864 76.8622 26.4732 77.6337 26.3329 78.4674C26.2248 79.1101 26.0318 79.6068 25.754 79.9575C25.4719 80.3074 25.1765 80.5636 24.8678 80.726C24.5548 80.8877 24.2977 81.0096 24.0963 81.0918L24.0656 81.2742L25.6028 81.5328L25.3529 83.0179ZM20.6048 80.6651C21.3603 80.7923 22.0455 80.7937 22.6603 80.6694C23.2708 80.5444 23.7746 80.2965 24.1719 79.9257C24.5649 79.5542 24.8132 79.0602 24.9169 78.4435C25.0251 77.8009 24.946 77.2361 24.6796 76.7492C24.4096 76.2573 24.0041 75.8541 23.4631 75.5399C22.9185 75.2205 22.2901 75.0009 21.5779 74.8811C20.8745 74.7627 20.2222 74.7646 19.6212 74.8868C19.0165 75.0038 18.5127 75.2517 18.1096 75.6304C17.7029 76.0041 17.4447 76.5166 17.3352 77.1679C17.23 77.7932 17.3 78.3453 17.5454 78.8242C17.7865 79.3024 18.171 79.6975 18.699 80.0096C19.2226 80.3209 19.8579 80.5395 20.6048 80.6651Z" fill="white"/>
<path d="M28.8397 69.0812C28.5457 69.9486 28.0813 70.6398 27.4465 71.1546C26.8132 71.6652 26.0631 71.9783 25.1964 72.0937C24.3311 72.2049 23.4022 72.0923 22.4096 71.7559C21.4087 71.4167 20.5965 70.9391 19.973 70.3233C19.3509 69.7033 18.9436 68.998 18.7513 68.2075C18.5603 67.4128 18.6119 66.5818 18.9059 65.7143C19.1999 64.8469 19.6635 64.1578 20.2969 63.6472C20.9317 63.1324 21.6838 62.8201 22.5533 62.7102C23.4242 62.5963 24.3601 62.7089 25.361 63.0481C26.3535 63.3845 27.1588 63.862 27.7767 64.4806C28.3961 65.095 28.8012 65.7996 28.9922 66.5943C29.1845 67.3848 29.1337 68.2138 28.8397 69.0812ZM27.5135 68.6317C27.7369 67.9728 27.7517 67.3734 27.5581 66.8335C27.3645 66.2937 27.027 65.8283 26.5458 65.4373C26.0646 65.0464 25.5028 64.7421 24.8606 64.5244C24.2183 64.3068 23.5853 64.2061 22.9613 64.2225C22.3374 64.2388 21.7824 64.4017 21.2962 64.7112C20.8101 65.0207 20.4554 65.5049 20.232 66.1638C20.0087 66.8227 19.9959 67.4228 20.1937 67.9641C20.3915 68.5054 20.7331 68.9722 21.2185 69.3645C21.7039 69.7569 22.2678 70.0619 22.91 70.2796C23.5522 70.4972 24.1832 70.5972 24.803 70.5794C25.4227 70.5617 25.9736 70.3973 26.4556 70.0864C26.9375 69.7755 27.2902 69.2906 27.5135 68.6317Z" fill="white"/>
<path d="M30.1504 55.6869L24.8412 52.8974L25.5662 51.5175L34.5474 56.2363L33.8224 57.6163L32.3022 56.8175L32.253 56.9111C32.5985 57.3612 32.8143 57.8924 32.9005 58.5047C32.9827 59.115 32.8457 59.7593 32.4893 60.4376C32.1944 60.9989 31.8094 61.4333 31.3344 61.7409C30.8556 62.0464 30.3011 62.1928 29.6711 62.1801C29.0372 62.1654 28.3382 61.9573 27.5741 61.5559L21.8673 58.5575L22.5923 57.1775L28.2056 60.1268C28.8605 60.4709 29.4791 60.5621 30.0614 60.4005C30.6458 60.235 31.0886 59.8658 31.3896 59.2927C31.5699 58.9497 31.6655 58.5547 31.6764 58.1078C31.6894 57.6571 31.5782 57.2156 31.3426 56.7834C31.1091 56.3474 30.7117 55.9819 30.1504 55.6869Z" fill="white"/>
<path d="M29.9605 45.128L31.0477 45.8784L28.0611 50.2055L26.9739 49.4551L29.9605 45.128ZM25.8439 46.8132L26.7294 45.5303L34.6876 51.0233C35.05 51.2734 35.3581 51.4085 35.6118 51.4284C35.8645 51.4423 36.0791 51.3871 36.2558 51.2629C36.4313 51.1326 36.5841 50.9733 36.7142 50.7848C36.8118 50.6435 36.8846 50.5225 36.9326 50.4219C36.977 50.3188 37.0125 50.2363 37.0392 50.1744L38.3717 50.709C38.3443 50.8184 38.2931 50.9624 38.2182 51.1407C38.1468 51.3215 38.0286 51.5316 37.8636 51.7707C37.6134 52.1331 37.2904 52.4345 36.8944 52.6749C36.5009 52.9116 36.066 53.034 35.5895 53.0422C35.1155 53.0468 34.6357 52.8815 34.1501 52.5463L25.8439 46.8132Z" fill="white"/>
<path d="M33.0851 36.1099L34.5112 34.7725L45.5456 39.8182L45.6612 39.7098L41.3334 28.3746L42.7595 27.0371L52.013 36.9042L50.8952 37.9525L43.8647 30.4558L43.7684 30.5462L47.7154 40.9346L46.6362 41.9467L36.5222 37.3417L36.4259 37.4321L43.4564 44.9288L42.3386 45.977L33.0851 36.1099Z" fill="white"/>
<path d="M57.3788 33.5597C56.565 34.1012 55.7434 34.3888 54.9142 34.4223C54.0861 34.4497 53.2967 34.2451 52.546 33.8084C51.7965 33.3657 51.1339 32.7118 50.5582 31.8466C49.9824 30.9815 49.6326 30.1141 49.5088 29.2444C49.3862 28.3686 49.4858 27.5566 49.8076 26.8082C50.1307 26.0537 50.6734 25.4227 51.4359 24.9153C51.8759 24.6226 52.3591 24.4068 52.8855 24.268C53.412 24.1292 53.961 24.1077 54.5325 24.2035C55.1015 24.2955 55.6698 24.5415 56.2374 24.9413C56.805 25.3411 57.351 25.9352 57.8755 26.7233L58.2414 27.2732L51.7308 31.6058L50.9843 30.484L56.1752 27.0297C55.8581 26.5531 55.4798 26.1913 55.0403 25.9442C54.6045 25.6947 54.1405 25.5777 53.6484 25.5932C53.1598 25.6062 52.6809 25.7688 52.2117 26.0811C51.6948 26.425 51.333 26.851 51.1261 27.3589C50.9205 27.8606 50.8523 28.3821 50.9215 28.9232C50.9907 29.4642 51.1801 29.9676 51.49 30.4331L51.9876 31.181C52.4121 31.8188 52.8819 32.2864 53.397 32.5836C53.9134 32.8747 54.4464 33.004 54.996 32.9715C55.5432 32.9353 56.0788 32.7428 56.6031 32.3939C56.944 32.167 57.2202 31.9145 57.4317 31.6362C57.6445 31.3518 57.787 31.0454 57.8593 30.7169C57.9292 30.3848 57.9216 30.0355 57.8364 29.669L59.3243 29.1866C59.4753 29.6997 59.5024 30.2212 59.4055 30.7512C59.3061 31.2775 59.0871 31.7829 58.7484 32.2675C58.4072 32.7484 57.9507 33.1791 57.3788 33.5597Z" fill="white"/>
<path d="M66.6837 22.5171L67.3257 23.8207L62.0164 26.4355L61.3744 25.1318L66.6837 22.5171Z" fill="white"/>
</svg>
