<svg width="24" height="24" viewBox="0 0 24 24" fill="none" xmlns="http://www.w3.org/2000/svg">
<rect width="24" height="24" rx="12" fill="url(#paint0_linear_342_2728)"/>
<path d="M11.8034 16C11.6145 16 11.4885 15.937 11.3625 15.811L8.27589 12.6614C8.02392 12.4094 8.02392 12.0315 8.27589 11.7795C8.52786 11.5276 8.90581 11.5276 9.15778 11.7795L11.8034 14.4252L18.0397 8.18898C18.2916 7.93701 18.6696 7.93701 18.9216 8.18898C19.1735 8.44094 19.1735 8.8189 18.9216 9.07087L12.3074 15.811C12.1814 15.874 11.9924 16 11.8034 16Z" fill="white"/>
<path d="M8.71654 15.9995C8.52756 15.9995 8.40158 15.9365 8.27559 15.8105L5.18898 12.7239C4.93701 12.4719 4.93701 12.094 5.18898 11.842C5.44094 11.5901 5.8189 11.5901 6.07087 11.842L9.15748 14.9286C9.40945 15.1806 9.40945 15.5586 9.15748 15.8105C9.0315 15.9365 8.90551 15.9995 8.71654 15.9995ZM12.0551 12.6609C11.8661 12.6609 11.7402 12.5979 11.6142 12.4719C11.3622 12.22 11.3622 11.842 11.6142 11.5901L14.9528 8.25148C15.2047 7.99951 15.5827 7.99951 15.8346 8.25148C16.0866 8.50344 16.0866 8.8814 15.8346 9.13337L12.4961 12.4719C12.3701 12.5979 12.2441 12.6609 12.0551 12.6609Z" fill="white"/>
<defs>
<linearGradient id="paint0_linear_342_2728" x1="-3.21865e-08" y1="-3.2" x2="21.6" y2="24" gradientUnits="userSpaceOnUse">
<stop stop-color="#C916CF"/>
<stop offset="1" stop-color="#6A00FF"/>
</linearGradient>
</defs>
</svg>
