<svg width="45" height="45" viewBox="0 0 45 45" fill="none" xmlns="http://www.w3.org/2000/svg">
<rect x="0.5" y="0.5" width="43.1957" height="43.1957" rx="21.5978" fill="url(#paint0_linear_342_1770)" stroke="url(#paint1_linear_342_1770)"/>
<path d="M21.1199 31.4243C20.8856 31.6586 20.5057 31.6586 20.2714 31.4243L16.453 27.6059C16.2187 27.3716 16.2187 26.9917 16.453 26.7574C16.6873 26.523 17.0672 26.523 17.3015 26.7574L20.6957 30.1515L24.0898 26.7574C24.3241 26.523 24.704 26.523 24.9383 26.7574C25.1726 26.9917 25.1726 27.3716 24.9383 27.6059L21.1199 31.4243ZM20.6957 14.7174L20.0957 14.7174C20.0957 14.386 20.3643 14.1174 20.6957 14.1174L20.6957 14.7174ZM30 14.1174C30.3314 14.1174 30.6 14.386 30.6 14.7174C30.6 15.0488 30.3314 15.3174 30 15.3174L30 14.1174ZM20.6957 31L20.0957 31L20.0957 14.7174L20.6957 14.7174L21.2957 14.7174L21.2957 31L20.6957 31ZM20.6957 14.7174L20.6957 14.1174L30 14.1174L30 14.7174L30 15.3174L20.6957 15.3174L20.6957 14.7174Z" fill="white"/>
<defs>
<linearGradient id="paint0_linear_342_1770" x1="-5.9271e-08" y1="-5.89275" x2="39.7761" y2="44.1957" gradientUnits="userSpaceOnUse">
<stop stop-color="#C916CF"/>
<stop offset="1" stop-color="#6A00FF"/>
</linearGradient>
<linearGradient id="paint1_linear_342_1770" x1="22.0978" y1="0" x2="22.0978" y2="44.1957" gradientUnits="userSpaceOnUse">
<stop stop-color="#C916CF"/>
<stop offset="1" stop-color="#6A00FF"/>
</linearGradient>
</defs>
</svg>
