<svg width="56" height="45" viewBox="0 0 56 45" fill="none" xmlns="http://www.w3.org/2000/svg">
<path fill-rule="evenodd" clip-rule="evenodd" d="M52.43 32.1659C52.43 37.2761 48.2768 41.4265 43.1777 41.4265H12.8224C7.72329 41.4265 3.57003 37.276 3.57003 32.1659V12.8339C3.57003 11.1283 4.03659 9.52644 4.84644 8.1516L19.6579 22.9764C21.8738 25.2009 24.8413 26.4265 28.0032 26.4265C31.1586 26.4265 34.126 25.2009 36.3419 22.9764L51.1535 8.1516C51.9634 9.52644 52.4299 11.1282 52.4299 12.8339V32.1659H52.43ZM43.1776 3.57324H12.8224C10.7167 3.57324 8.77285 4.28654 7.21787 5.47333L22.1784 20.4538C23.727 21.9972 25.7938 22.8533 28.0032 22.8533C30.2061 22.8533 32.273 21.9972 33.8215 20.4538L48.782 5.47333C47.2271 4.28654 45.2834 3.57324 43.1776 3.57324ZM43.1776 0H12.8224C5.75358 0 0 5.75877 0 12.834V32.166C0 39.2477 5.75358 45 12.8224 45H43.1776C50.2464 45 56 39.2477 56 32.166V12.8339C56 5.75865 50.2464 0 43.1776 0Z" fill="white"/>
</svg>
