<svg width="84" height="79" viewBox="0 0 84 79" fill="none" xmlns="http://www.w3.org/2000/svg">
<path d="M1 46.5138V8.84385C1 7.03803 2.46381 5.57422 4.26963 5.57422H11.7989" stroke="#C916CF" stroke-width="2" stroke-miterlimit="10" stroke-linecap="round" stroke-linejoin="round"/>
<path d="M77.6478 62.1439H4.26963C2.46381 62.1439 1 60.6801 1 58.8743V45.4961" stroke="#C916CF" stroke-width="2" stroke-miterlimit="10" stroke-linecap="round" stroke-linejoin="round"/>
<path d="M74.6483 5.57422H78.9806C80.7864 5.57422 82.2502 7.03803 82.2502 8.84385V58.8691C82.2502 60.6749 80.7864 62.1388 78.9806 62.1388H43.042" stroke="#C916CF" stroke-width="2" stroke-miterlimit="10" stroke-linecap="round" stroke-linejoin="round"/>
<path d="M36.6484 5.57422H75.9268" stroke="#C916CF" stroke-width="2" stroke-miterlimit="10" stroke-linecap="round" stroke-linejoin="round"/>
<path d="M12 53L82 53" stroke="#C916CF" stroke-width="2" stroke-miterlimit="10" stroke-linecap="round" stroke-linejoin="round"/>
<path d="M1.32617 53.1523H14.0777" stroke="#C916CF" stroke-width="2" stroke-miterlimit="10" stroke-linecap="round" stroke-linejoin="round"/>
<path d="M58.954 77.9982H24.296C22.9417 77.9982 21.8438 76.9002 21.8438 75.546C21.8438 74.1917 22.9417 73.0938 24.296 73.0938H58.954C60.3083 73.0938 61.4062 74.1917 61.4062 75.546C61.4062 76.9002 60.3083 77.9982 58.954 77.9982Z" stroke="#C916CF" stroke-width="2" stroke-miterlimit="10" stroke-linecap="round" stroke-linejoin="round"/>
<path d="M36.5215 10.4805H76.6924C77.0536 10.4805 77.3464 10.7733 77.3464 11.1344V52.9493" stroke="#C916CF" stroke-width="2" stroke-miterlimit="10" stroke-linecap="round" stroke-linejoin="round"/>
<path d="M5.9043 52.7312V11.1344C5.9043 10.7733 6.19709 10.4805 6.55822 10.4805H12.1257" stroke="#C916CF" stroke-width="2" stroke-miterlimit="10" stroke-linecap="round" stroke-linejoin="round"/>
<path d="M58.954 77.9982H24.296C22.9417 77.9982 21.8438 76.9002 21.8438 75.546C21.8438 74.1917 22.9417 73.0938 24.296 73.0938H58.954C60.3083 73.0938 61.4062 74.1917 61.4062 75.546C61.4062 76.9002 60.3083 77.9982 58.954 77.9982Z" stroke="#C916CF" stroke-width="2" stroke-miterlimit="10" stroke-linecap="round" stroke-linejoin="round"/>
<path d="M52.8237 62.748V73.0947H30.4268V62.707" stroke="#C916CF" stroke-width="2" stroke-miterlimit="10" stroke-linecap="round" stroke-linejoin="round"/>
<path d="M12.3623 18.9829V2.63481C12.3623 1.73191 13.0942 1 13.9971 1H34.5958C35.4987 1 36.2306 1.73191 36.2306 2.63481V18.9829C36.2306 19.8859 35.4987 20.6178 34.5958 20.6178H13.9971C13.0942 20.6178 12.3623 19.8859 12.3623 18.9829Z" stroke="#C916CF" stroke-width="2" stroke-miterlimit="10" stroke-linecap="round" stroke-linejoin="round"/>
<path d="M21.8 40.22C23.96 38.74 25.6867 37.2933 26.98 35.88C28.2867 34.4533 28.94 33.1333 28.94 31.92C28.94 31.2 28.76 30.6267 28.4 30.2C28.0533 29.7733 27.4867 29.56 26.7 29.56C25.8867 29.56 25.2733 29.8267 24.86 30.36C24.4467 30.88 24.2133 31.6267 24.16 32.6H21.94C22.0333 30.9867 22.5267 29.7533 23.42 28.9C24.3267 28.0467 25.48 27.62 26.88 27.62C28.2533 27.62 29.3267 27.9867 30.1 28.72C30.8867 29.44 31.28 30.44 31.28 31.72C31.28 32.7467 30.96 33.7867 30.32 34.84C29.6933 35.8933 28.8933 36.8667 27.92 37.76C26.9467 38.64 25.94 39.4 24.9 40.04H31.6V41.9H21.8V40.22ZM33.0477 38.96V37.04L40.0677 27.76H42.5077V36.96H44.4877V38.96H42.5077V42H40.2077V38.96H33.0477ZM40.3677 30.48L35.4077 36.96H40.3677V30.48ZM52.683 23.12L47.243 45.52H45.023L50.463 23.12H52.683ZM62.2216 29.52L56.9616 42H54.5616L59.9016 29.78H52.9016V27.8H62.2216V29.52Z" fill="#C916CF"/>
<path d="M30.7525 6.00017C30.5862 6.00546 30.4284 6.07516 30.3124 6.19454L23.7245 12.7824L20.9672 9.74929C20.8527 9.62386 20.6931 9.54892 20.5234 9.54092C20.3537 9.53292 20.1878 9.59248 20.0619 9.70656L16.2088 13.2375C16.1465 13.2944 16.0961 13.3632 16.0604 13.4396C16.0247 13.5161 16.0044 13.5988 16.0006 13.6831C15.9969 13.7674 16.0098 13.8516 16.0386 13.9309C16.0674 14.0102 16.1116 14.0831 16.1686 14.1454C16.2256 14.2076 16.2942 14.2581 16.3707 14.2938C16.4472 14.3295 16.5299 14.3497 16.6142 14.3534C16.6985 14.3572 16.7827 14.3442 16.862 14.3154C16.9414 14.2866 17.0142 14.2424 17.0765 14.1854L20.4557 11.0908L23.228 14.1428C23.2863 14.207 23.357 14.2589 23.4358 14.295C23.5147 14.3312 23.6 14.351 23.6867 14.3532C23.7735 14.3555 23.8597 14.3402 23.9404 14.3082C24.021 14.2762 24.0943 14.2282 24.1559 14.1671L31.2177 7.10148C31.3095 7.01123 31.372 6.89547 31.3972 6.76923C31.4223 6.64299 31.409 6.51213 31.3588 6.39358C31.3087 6.27504 31.2241 6.17428 31.1159 6.10443C31.0078 6.03457 30.8812 5.99716 30.7525 6.00017Z" fill="#C916CF" stroke="#C916CF"/>
</svg>
