<svg width="83" height="76" viewBox="0 0 83 76" fill="none" xmlns="http://www.w3.org/2000/svg">
<path d="M74.9695 61.9286C74.6072 61.5663 74.0203 61.5663 73.658 61.9286C73.2957 62.2908 73.2957 62.8777 73.658 63.24L77.9691 67.5511H9.16328C8.94592 67.5511 8.76961 67.3748 8.76961 67.1574V4.03719L13.0602 8.32865C13.2413 8.50979 13.478 8.60036 13.7159 8.60036C14.5331 8.60036 14.9589 7.60448 14.3716 7.01721L8.47496 1.11936C8.11268 0.757087 7.52579 0.757087 7.16352 1.11936L1.27171 7.00997C0.909431 7.37224 0.909431 7.95913 1.27171 8.3214C1.63398 8.68368 2.22087 8.68368 2.58315 8.3214L6.91476 3.9907V67.1574C6.91476 68.3976 7.92309 69.4059 9.16328 69.4059H77.9619L73.6508 73.717C73.0636 74.3042 73.4892 75.3001 74.3065 75.3001C74.5444 75.3001 74.7811 75.2096 74.9622 75.0284L80.8601 69.1306C81.2223 68.7683 81.2223 68.1814 80.8601 67.8192L74.9695 61.9286Z" fill="#C916CF" stroke="#C916CF" stroke-width="0.4"/>
<path d="M60.4192 50.8928C59.2472 51.4942 57.9491 52.291 56.6581 52.6097C55.9863 51.0495 54.0706 50.4243 52.6028 51.3709C51.7876 50.5701 51.1774 49.5663 50.7295 48.7228C48.0387 43.6636 49.8776 38.6113 48.045 26.5877C47.9678 26.0818 47.5113 25.7352 46.9884 25.8113C46.4824 25.8885 46.1346 26.3607 46.2119 26.8679C48.0488 38.9451 46.141 44.0479 49.092 49.5934C49.6334 50.6136 50.3951 51.8441 51.4725 52.8449C50.8586 54.7147 52.2803 56.4876 54.1035 56.4876C55.3696 56.4876 56.4287 55.6314 56.7638 54.4715C58.4767 54.1349 60.0089 53.1869 61.2645 52.5448C70.2682 47.9354 76.5151 47.904 80.3649 52.4421C80.6982 52.8334 81.285 52.8793 81.6727 52.5496C82.0627 52.2175 82.111 51.6319 81.7802 51.2418C77.3507 46.0226 70.1656 45.9067 60.4192 50.8928ZM54.1035 54.6327C53.5927 54.6327 53.1773 54.2161 53.1773 53.7053C53.1773 53.1945 53.5927 52.7791 54.1035 52.7791C54.6143 52.7791 55.0297 53.1945 55.0297 53.7053C55.0297 54.2161 54.6143 54.6327 54.1035 54.6327Z" fill="#C916CF" stroke="#C916CF" stroke-width="0.4"/>
<path d="M10.782 56.6988C10.4523 57.09 10.503 57.6757 10.8955 58.0054C11.2898 58.3367 11.8745 58.2819 12.2021 57.8919C13.4996 56.3488 14.5323 54.5378 16.0835 53.5068C17.2188 55.2112 19.7583 55.1717 20.805 53.3375C21.7017 53.673 22.6785 54.1889 23.7708 54.9067C27.361 57.2555 30.7806 58.0795 34.4144 55.6421C37.9805 53.2455 39.634 48.6616 40.293 44.4152C41.2639 38.114 41.8677 32.6992 42.3761 27.7867C42.4292 27.2771 42.0585 26.8219 41.5489 26.7688C41.0405 26.7048 40.584 27.0851 40.5309 27.596C40.0249 32.4843 39.4235 37.8713 38.4599 44.1314C37.8895 47.8072 36.4748 52.0269 33.3807 54.1012C30.7687 55.8571 28.2763 55.6385 24.7876 53.355C23.4548 52.4795 22.2547 51.8757 21.1313 51.4947C20.9044 50.1875 19.7692 49.1876 18.3982 49.1876C16.9863 49.1876 15.8299 50.2497 15.6531 51.6142C13.4958 52.6997 12.1609 55.0578 10.782 56.6988ZM18.3982 51.0424C18.9068 51.0424 19.3194 51.4557 19.3232 51.9635C19.3217 51.9696 19.3234 51.9753 19.3221 51.9813C19.3155 52.4867 18.905 52.8961 18.3982 52.8961C17.8874 52.8961 17.472 52.4807 17.472 51.9699C17.472 51.4591 17.8874 51.0424 18.3982 51.0424Z" fill="#C916CF" stroke="#C916CF" stroke-width="0.4"/>
<path d="M55.9397 29.4112L62.6339 36.1842C63.6544 37.2168 65.3165 37.2125 66.3328 36.206C66.5107 35.9727 67.5138 35.3519 67.521 33.955C67.5258 33.2558 67.2578 32.5965 66.7663 32.1002L57.8941 23.123C57.5343 22.7583 56.9474 22.7559 56.5827 23.1158C56.218 23.4756 56.2156 24.0625 56.5755 24.4272L58.0577 25.927L56.5863 27.4271L55.0165 25.8389C54.6566 25.4754 54.0697 25.4705 53.705 25.8316C53.3403 26.1915 53.3379 26.7784 53.6978 27.1431C53.9814 27.4301 56.0734 29.5465 55.9397 29.4112ZM59.3616 27.2463L65.4476 33.4044C65.7466 33.7084 65.737 34.1862 65.4403 34.4803C64.9979 34.861 64.9977 35.0715 64.49 35.1071C64.2871 35.1047 64.0963 35.025 63.9526 34.8801L57.8903 28.7464L59.3616 27.2463Z" fill="#C916CF" stroke="#C916CF" stroke-width="0.4"/>
<path d="M54.6498 12.5373C54.6874 6.03966 49.445 0.734375 42.9145 0.734375C36.4598 0.734375 31.2201 5.9402 31.1828 12.3984C31.1454 18.8814 36.3597 24.1639 42.8469 24.2014C49.5472 24.2014 54.6134 18.8473 54.6498 12.5373ZM33.0377 12.4105C33.0695 7.05956 37.3691 2.58923 42.9737 2.58923C48.4309 2.62168 52.8275 7.06258 52.795 12.5252C52.7626 17.9626 48.3543 22.3465 42.9181 22.3465C37.4422 22.3465 33.005 17.9012 33.0377 12.4105Z" fill="#C916CF" stroke="#C916CF" stroke-width="0.4"/>
<path d="M42.8763 20.1526C43.3859 20.1526 43.8001 19.7408 43.8038 19.2312C43.8074 18.7192 43.3944 18.3014 42.8824 18.2978C39.669 18.2785 37.0691 15.6483 37.0884 12.4362C37.0908 11.9241 36.679 11.5063 36.1658 11.5039H36.161C35.6513 11.5039 35.2359 11.9157 35.2335 12.4265C35.2094 16.6603 38.6353 20.1261 42.8703 20.1526H42.8763Z" fill="#C916CF" stroke="#C916CF" stroke-width="0.4"/>
<path d="M44.8561 16.3398C47.0853 15.5295 48.2398 13.0576 47.4295 10.8284C46.1242 7.24265 41.1019 7.02092 39.4896 10.4782C37.8811 13.9187 41.2391 17.651 44.8561 16.3398ZM42.5508 9.99879C42.8262 9.89856 43.1075 9.85146 43.3841 9.85146C44.3839 9.85146 45.3247 10.4685 45.6857 11.4612C46.147 12.7291 45.4901 14.136 44.2233 14.5961C42.9542 15.0598 41.5473 14.3992 41.0884 13.1325C40.6287 11.8702 41.2737 10.4639 42.5508 9.99879Z" fill="#C916CF" stroke="#C916CF" stroke-width="0.4"/>
<path d="M52.3222 25.0334L55.48 21.8115C55.8387 21.4456 55.8338 20.8575 55.4679 20.5001C55.1008 20.1414 54.5139 20.1463 54.1565 20.5122L50.9987 23.734C50.64 24.0999 50.646 24.688 51.0107 25.0454C51.3772 25.4046 51.9641 25.3986 52.3222 25.0334Z" fill="#C916CF" stroke="#C916CF" stroke-width="0.4"/>
</svg>
