<svg width="58" height="58" viewBox="0 0 58 58" fill="none" xmlns="http://www.w3.org/2000/svg">
<path fill-rule="evenodd" clip-rule="evenodd" d="M36.1501 17.3005C35.6688 17.6109 35.096 17.647 34.5798 17.398C34.1502 17.191 33.705 17.0057 33.2561 16.848C32.7159 16.6591 32.3368 16.2283 32.2165 15.6687L31.5438 12.5376C31.527 12.4582 31.4656 12.4089 31.3838 12.4089H26.6162C26.5344 12.4089 26.473 12.4582 26.4562 12.5376L25.7835 15.67C25.6632 16.2295 25.2841 16.6591 24.7439 16.8492C24.2962 17.0057 23.851 17.1898 23.4202 17.398C22.904 17.647 22.3312 17.6109 21.8499 17.3005L19.158 15.5604C19.0895 15.5159 19.0112 15.5243 18.9547 15.5821L15.583 18.9539C15.5252 19.0116 15.5168 19.0899 15.5613 19.1572L17.3001 21.8491C17.6118 22.3305 17.6467 22.9033 17.3976 23.4195C17.1906 23.8503 17.0053 24.2943 16.8489 24.742C16.6588 25.2835 16.2292 25.6625 15.6696 25.7829L12.5386 26.4555C12.458 26.4724 12.4086 26.5337 12.4086 26.6156V31.3844C12.4086 31.4663 12.458 31.5264 12.5386 31.5445L15.6696 32.2171C16.2292 32.3375 16.66 32.7165 16.8489 33.2568C17.0065 33.7045 17.1906 34.1497 17.3976 34.5793C17.6467 35.0967 17.6118 35.6683 17.3001 36.1509L15.5613 38.8415C15.5168 38.9101 15.5252 38.9884 15.583 39.0461L18.9535 42.4179C19.0112 42.4757 19.0895 42.4841 19.158 42.4396L21.8499 40.6995C22.1194 40.525 22.4166 40.4372 22.7175 40.4372C22.9545 40.4372 23.1928 40.4913 23.4202 40.6008C23.851 40.8078 24.295 40.9931 24.7439 41.1496C25.2841 41.3397 25.6632 41.7693 25.7835 42.3288L26.4562 45.4599C26.473 45.5394 26.5344 45.5887 26.6162 45.5887H31.3838C31.4656 45.5887 31.527 45.5394 31.5438 45.4599L32.2165 42.3288C32.3368 41.7693 32.7159 41.3397 33.2561 41.1496C33.705 40.9919 34.1502 40.8078 34.5798 40.6008C35.096 40.3517 35.6688 40.3866 36.1501 40.6983L38.8419 42.4371C38.9105 42.4817 38.9888 42.4732 39.0465 42.4155L42.4182 39.0437C42.4748 38.986 42.4832 38.9077 42.4399 38.8391L40.6999 36.1485C40.3882 35.6659 40.3533 35.0943 40.6024 34.5769C40.8094 34.1473 40.9947 33.7021 41.1511 33.2532C41.3412 32.7129 41.7708 32.3339 42.3304 32.2135L45.4626 31.5409C45.542 31.524 45.5914 31.4626 45.5914 31.3808V26.612C45.5914 26.5301 45.542 26.4688 45.4626 26.4519L42.3304 25.7792C41.7708 25.6589 41.3412 25.2799 41.1511 24.7396C40.9935 24.2907 40.8094 23.8455 40.6024 23.4159C40.3533 22.8996 40.3882 22.3269 40.6999 21.8455L42.4399 19.1548C42.4832 19.0862 42.4748 19.0068 42.417 18.9503L39.0465 15.5785C38.9888 15.5207 38.9105 15.5123 38.8419 15.5568L36.1501 17.3005ZM6.46905 19.8203C6.13934 21.2715 4.84095 22.3569 3.29228 22.3569C1.49452 22.3569 0.0324897 20.8949 0.0324897 19.0983C0.0324897 17.3017 1.49452 15.8396 3.29228 15.8396C4.84095 15.8396 6.13934 16.9262 6.46905 18.3775H14.2208C14.0078 18.8299 14.0115 19.363 14.2497 19.8215H6.46905V19.8203ZM3.29228 17.2824C2.29112 17.2824 1.47647 18.0971 1.47647 19.0983C1.47647 20.0995 2.29112 20.9141 3.29228 20.9141C4.29224 20.9141 5.10689 20.0995 5.10689 19.0983C5.10689 18.0971 4.29224 17.2824 3.29228 17.2824ZM6.51838 46.9713C6.51838 45.4214 5.43178 44.123 3.98058 43.7933V29.7214H10.9394V28.2774H3.25979C2.86029 28.2774 2.5378 28.6011 2.5378 28.9994V43.7921C1.0866 44.1218 0 45.4202 0 46.9701C0 48.7667 1.46203 50.2288 3.25979 50.2288C5.05635 50.23 6.51838 48.7679 6.51838 46.9713ZM3.25979 45.1555C4.25975 45.1555 5.0744 45.9702 5.0744 46.9713C5.0744 47.9725 4.25975 48.786 3.25979 48.786C2.25863 48.786 1.44398 47.9725 1.44398 46.9713C1.44398 45.9702 2.25863 45.1555 3.25979 45.1555ZM19.8199 51.5308C21.2711 51.8605 22.3577 53.1589 22.3577 54.7076C22.3577 56.5054 20.8956 57.9675 19.0979 57.9675C17.3013 57.9675 15.8393 56.5054 15.8393 54.7076C15.8393 53.1589 16.9259 51.8605 18.3759 51.5308V43.7801C18.8283 43.9931 19.3614 43.9895 19.8199 43.7512V51.5308ZM17.2833 54.7089C17.2833 55.71 18.0979 56.5247 19.0979 56.5247C20.099 56.5247 20.9137 55.71 20.9137 54.7089C20.9137 53.7089 20.099 52.8942 19.0979 52.8942C18.0979 52.893 17.2833 53.7089 17.2833 54.7089ZM29.722 54.0193V47.0592H28.278V54.7413C28.278 55.1396 28.6017 55.4633 29 55.4633H43.7924C44.1221 56.9134 45.4217 58 46.9704 58C48.7669 58 50.229 56.5379 50.229 54.7413C50.229 52.9435 48.7669 51.4815 46.9704 51.4815C45.4217 51.4815 44.1221 52.5681 43.7924 54.0193H29.722ZM46.9704 56.5572C45.9692 56.5572 45.1546 55.7425 45.1546 54.7425C45.1546 53.7414 45.9692 52.9267 46.9704 52.9267C47.9715 52.9267 48.785 53.7414 48.785 54.7425C48.785 55.7413 47.9715 56.5572 46.9704 56.5572ZM54.7077 35.6431C56.5055 35.6431 57.9675 37.1051 57.9675 38.9017C57.9675 40.6983 56.5055 42.1604 54.7077 42.1604C53.159 42.1604 51.8607 41.0738 51.531 39.6237H43.7804C43.9934 39.1713 43.9897 38.6382 43.7515 38.1797H51.531C51.8607 36.7297 53.159 35.6431 54.7077 35.6431ZM52.8931 38.9017C52.8931 39.9029 53.7078 40.7176 54.7077 40.7176C55.7089 40.7176 56.5235 39.9029 56.5235 38.9017C56.5235 37.9017 55.7089 37.0871 54.7077 37.0871C53.7078 37.0871 52.8931 37.9005 52.8931 38.9017ZM51.4816 11.0299C51.4816 12.5786 52.5682 13.8782 54.0194 14.2079V28.2786H47.0594V29.7226H54.7414C55.1397 29.7226 55.4634 29.3989 55.4634 29.0006V14.2067C56.9134 13.877 58 12.5786 58 11.0287C58 9.23206 56.538 7.76999 54.7414 7.76999C52.9437 7.76999 51.4816 9.23326 51.4816 11.0299ZM56.556 11.0299C56.556 12.031 55.7414 12.8457 54.7414 12.8457C53.7402 12.8457 52.9256 12.031 52.9256 11.0299C52.9256 10.0299 53.7402 9.21521 54.7414 9.21521C55.7414 9.21401 56.556 10.0287 56.556 11.0299ZM35.6423 3.29115C35.6423 1.49455 37.1044 0.0324902 38.9021 0.0324902C40.6987 0.0324902 42.1607 1.49455 42.1607 3.29115C42.1607 4.83985 41.0741 6.13946 39.6241 6.46918V14.2199C39.1717 14.0069 38.6386 14.0105 38.1801 14.2488V6.46918C36.7289 6.13946 35.6423 4.83985 35.6423 3.29115ZM38.9021 5.10579C39.9021 5.10579 40.7167 4.29113 40.7167 3.29115C40.7167 2.28996 39.9021 1.4753 38.9021 1.4753C37.901 1.4753 37.0863 2.28996 37.0863 3.29115C37.0863 4.29233 37.901 5.10579 38.9021 5.10579ZM29.722 10.9408V3.25866C29.722 2.86035 29.3983 2.53665 29 2.53665H14.2076C13.8779 1.08542 12.5795 0 11.0296 0C9.23307 0 7.77104 1.46206 7.77104 3.25866C7.77104 5.05525 9.23307 6.51731 11.0296 6.51731C12.5783 6.51731 13.8779 5.43069 14.2076 3.98066H28.278V10.9396H29.722V10.9408ZM11.0296 1.44401C12.0308 1.44401 12.8454 2.25868 12.8454 3.25866C12.8454 4.25984 12.0308 5.0745 11.0296 5.0745C10.0297 5.0745 9.21502 4.25984 9.21502 3.25866C9.21502 2.25747 10.0297 1.44401 11.0296 1.44401ZM19.14 28.9838C19.14 23.547 23.5634 19.1235 29 19.1235C30.8651 19.1235 32.6701 19.6494 34.2272 20.6229L34.0275 19.2403C33.9709 18.8456 34.2453 18.4798 34.64 18.4232C35.0346 18.3666 35.4005 18.641 35.457 19.0345L35.9022 22.1319C35.9588 22.5266 35.6856 22.8924 35.291 22.949L32.1936 23.3942C32.1587 23.399 32.1238 23.4014 32.0901 23.4014C31.7364 23.4014 31.4283 23.1415 31.3766 22.7817C31.32 22.387 31.5932 22.0212 31.9878 21.9646L33.3368 21.7709C32.036 20.9887 30.5427 20.5676 29 20.5676C24.36 20.5676 20.584 24.3425 20.584 28.9838C20.584 29.6059 20.6526 30.2256 20.7861 30.8261C20.874 31.2148 20.6285 31.601 20.2386 31.6877C20.1857 31.6997 20.1327 31.7057 20.081 31.7057C19.7501 31.7057 19.4517 31.4771 19.3771 31.1413C19.2206 30.4374 19.14 29.7118 19.14 28.9838ZM23.8979 28.9994C23.8979 26.186 26.1866 23.8972 29 23.8972C31.8134 23.8972 34.1021 26.186 34.1021 28.9994C34.1021 31.8128 31.8134 34.1016 29 34.1016C26.1866 34.1028 23.8979 31.814 23.8979 28.9994ZM37.2139 27.1414C37.1272 26.7528 37.3727 26.3665 37.7614 26.2798C38.15 26.1932 38.5363 26.4375 38.6229 26.8274C38.7806 27.5313 38.86 28.2581 38.86 28.985C38.86 34.4217 34.4366 38.8452 29 38.8452C27.1036 38.8452 25.2673 38.3 23.6922 37.2928L24.082 38.5624C24.2 38.9426 23.9858 39.347 23.6043 39.4649C23.5333 39.4865 23.4623 39.4974 23.3925 39.4974C23.0833 39.4974 22.7981 39.2976 22.7018 38.9872L21.7825 35.9968C21.7259 35.8139 21.7452 35.6166 21.8342 35.4469C21.9245 35.2772 22.0773 35.1509 22.2602 35.0943L25.2505 34.175C25.6319 34.0571 26.0362 34.2712 26.1529 34.6527C26.2697 35.0342 26.0567 35.4385 25.6752 35.5552L24.3107 35.9752C25.6897 36.9018 27.3166 37.4024 29 37.4024C33.64 37.4024 37.416 33.6275 37.416 28.9862C37.416 28.3628 37.3474 27.7431 37.2139 27.1414Z" fill="#C916CF"/>
</svg>
