<svg width="55" height="56" viewBox="0 0 55 56" fill="none" xmlns="http://www.w3.org/2000/svg">
<path fill-rule="evenodd" clip-rule="evenodd" d="M31.6207 1.80645C27.5752 1.80645 1.81557 1.80645 1.81557 1.80645V48.6625H26.3606C26.8617 48.6625 27.2684 49.0673 27.2684 49.5658C27.2684 50.0642 26.8617 50.469 26.3606 50.469H0.907786C0.406461 50.469 0 50.0646 0 49.5658V0.903226C0 0.404419 0.406461 0 0.907786 0H32.5285C32.7692 0 33 0.0951775 33.1704 0.264532L39.286 6.34945C39.4562 6.51881 39.5519 6.74856 39.5519 6.98814V24.8406C39.5519 25.3392 39.1451 25.7439 38.6441 25.7439C38.143 25.7439 37.7363 25.3392 37.7363 24.8406V7.89137H32.5285C32.0271 7.89137 31.6207 7.48695 31.6207 6.98814V1.80645ZM36.4525 6.08492L33.4362 3.08384V6.08492H36.4525ZM8.57698 12.9126H14.2334C15.1391 12.9126 15.8792 13.649 15.8792 14.5502V20.1782C15.8792 21.0794 15.1391 21.8157 14.2334 21.8157H8.57698C7.67124 21.8157 6.93117 21.0794 6.93117 20.1782V14.5502C6.93117 13.649 7.67124 12.9126 8.57698 12.9126ZM8.74674 20.0093H14.0636V14.7191H8.74674V20.0093ZM8.57698 24.3454H14.2334C15.1391 24.3454 15.8792 25.0818 15.8792 25.983V31.611C15.8792 32.5122 15.1391 33.2485 14.2334 33.2485H8.57698C7.67124 33.2485 6.93117 32.5122 6.93117 31.611V25.983C6.93117 25.0818 7.67124 24.3454 8.57698 24.3454ZM8.74674 26.1519V31.4421H14.0636V26.1519H8.74674ZM8.57801 35.7797H14.2325C15.1372 35.7797 15.878 36.5192 15.878 37.4194V43.0455C15.878 43.9466 15.138 44.6828 14.2325 44.6828H8.57801C7.67238 44.6828 6.93242 43.9466 6.93242 43.0455V37.4194C6.93242 36.5192 7.67317 35.7797 8.57801 35.7797ZM8.74799 37.5862V42.8764H14.0624V37.5862H8.74799ZM19.4565 16.6238C18.9554 16.6238 18.5487 16.2191 18.5487 15.7205C18.5487 15.2221 18.9554 14.8173 19.4565 14.8173H31.7128C32.2139 14.8173 32.6206 15.2221 32.6206 15.7205C32.6206 16.2191 32.2139 16.6238 31.7128 16.6238H19.4565ZM19.4565 19.9109C18.9554 19.9109 18.5487 19.5063 18.5487 19.0077C18.5487 18.5092 18.9554 18.1045 19.4565 18.1045H27.4351C27.9361 18.1045 28.3429 18.5092 28.3429 19.0077C28.3429 19.5063 27.9361 19.9109 27.4351 19.9109H19.4565ZM19.4565 28.0567C18.9554 28.0567 18.5487 27.6519 18.5487 27.1535C18.5487 26.6549 18.9554 26.2502 19.4565 26.2502H31.7128C32.2139 26.2502 32.6206 26.6549 32.6206 27.1535C32.6206 27.6519 32.2139 28.0567 31.7128 28.0567H19.4565ZM19.4565 31.3439C18.9554 31.3439 18.5487 30.9391 18.5487 30.4406C18.5487 29.942 18.9554 29.5374 19.4565 29.5374H27.4351C27.9361 29.5374 28.3429 29.942 28.3429 30.4406C28.3429 30.9391 27.9361 31.3439 27.4351 31.3439H19.4565ZM19.4565 39.4923C18.9554 39.4923 18.5487 39.0875 18.5487 38.5891C18.5487 38.0905 18.9554 37.6859 19.4565 37.6859H24.1852C24.6862 37.6859 25.093 38.0905 25.093 38.5891C25.093 39.0875 24.6862 39.4923 24.1852 39.4923H19.4565ZM19.4565 42.7795C18.9554 42.7795 18.5487 42.3747 18.5487 41.8763C18.5487 41.3777 18.9554 40.973 19.4565 40.973H24.1238C24.6248 40.973 25.0316 41.3777 25.0316 41.8763C25.0316 42.3747 24.6248 42.7795 24.1238 42.7795H19.4565ZM7.69984 7.89137C7.19874 7.89137 6.79205 7.48661 6.79205 6.98814C6.79205 6.48968 7.19874 6.08492 7.69984 6.08492H25.7672C26.2681 6.08492 26.6749 6.48968 26.6749 6.98814C26.6749 7.48661 26.2681 7.89137 25.7672 7.89137H7.69984ZM43.9082 29.5832C44.8737 29.8514 45.8021 30.2341 46.6763 30.7246L48.4524 29.9389C48.7956 29.787 49.1974 29.8613 49.4631 30.1255L52.058 32.7074C52.3233 32.9714 52.3979 33.3706 52.246 33.7119C52.246 33.7119 51.4592 35.4795 51.4591 35.4794C51.9526 36.3499 52.3375 37.2748 52.6071 38.2384L54.4183 38.932C54.7687 39.0662 55 39.4013 55 39.7749V43.427C55 43.8007 54.7687 44.1358 54.4183 44.2699C54.4183 44.2699 52.6065 44.9637 52.6066 44.9637C52.3366 45.9243 51.95 46.8481 51.4587 47.7178L52.246 49.4864C52.3979 49.8277 52.3233 50.2269 52.058 50.4909L49.4631 53.0728C49.1978 53.3367 48.7965 53.411 48.4535 53.2598L46.6777 52.4772C45.8049 52.9678 44.8742 53.3506 43.908 53.6188L43.2108 55.4211C43.0759 55.7699 42.7391 56 42.3635 56H38.693C38.3175 56 37.9807 55.7699 37.8458 55.4211L37.1487 53.619C36.1806 53.3503 35.2514 52.9655 34.3769 52.4765L32.5994 53.2598C32.2563 53.411 31.8551 53.3367 31.5898 53.0728L28.995 50.4909C28.7294 50.2266 28.6547 49.8268 28.8073 49.4853C28.8073 49.4853 29.5968 47.7187 29.5969 47.7188C29.1041 46.8508 28.719 45.9251 28.4475 44.9642L26.6347 44.2699C26.2841 44.1358 26.0529 43.8007 26.0529 43.427V39.7749C26.0529 39.4013 26.2841 39.0662 26.6347 38.932L28.4472 38.2379C28.7188 37.2747 29.1039 36.3502 29.5971 35.4802L28.8073 33.713C28.6547 33.3715 28.7294 32.9717 28.995 32.7074L31.5898 30.1255C31.8554 29.8613 32.2573 29.787 32.6005 29.9389C32.6005 29.9389 34.3766 30.7246 34.3765 30.7247C35.251 30.234 36.1797 29.8512 37.1455 29.5831L37.8461 27.7763C37.9812 27.428 38.3177 27.1983 38.693 27.1983H42.3635C42.7393 27.1983 43.0762 27.4286 43.2109 27.7776L43.9082 29.5832ZM42.3811 30.6653L41.7399 29.0047H39.3157L38.6713 30.6664C38.5636 30.9442 38.3253 31.1512 38.0343 31.22C36.9308 31.481 35.8783 31.9148 34.911 32.5079C34.656 32.6643 34.3397 32.6853 34.066 32.5642L32.4327 31.8416L30.7197 33.546L31.4459 35.1712C31.5677 35.4435 31.5465 35.7581 31.3893 36.012C30.7928 36.975 30.3567 38.023 30.0908 39.1251C30.021 39.4142 29.8129 39.6505 29.5341 39.7573L27.8684 40.3951V42.8068L29.5341 43.4447C29.8127 43.5514 30.0208 43.7875 30.0907 44.0762C30.3565 45.1746 30.7922 46.2257 31.3885 47.1852C31.5463 47.4391 31.5678 47.7543 31.4459 48.0271L30.7197 49.6522L32.4334 51.3573L34.0671 50.6372C34.3399 50.517 34.6546 50.5379 34.909 50.6929C35.8769 51.2829 36.9297 51.7206 38.0373 51.9818C38.329 52.0505 38.5676 52.2579 38.6753 52.5362L39.3163 54.1935H41.7402L42.3813 52.5362C42.4889 52.2582 42.7273 52.0508 43.0186 51.9819C44.1217 51.7211 45.1772 51.2876 46.1407 50.6949C46.3956 50.5381 46.7118 50.5165 46.9857 50.6372L48.6195 51.3573L50.3339 49.6516L49.6101 48.026C49.4894 47.7546 49.5103 47.4415 49.6661 47.1884C50.2592 46.2253 50.6993 45.1775 50.9616 44.0788C51.0308 43.7889 51.2393 43.5517 51.5188 43.4447L53.1844 42.8068V40.3951L51.5188 39.7573C51.239 39.6501 51.0306 39.4127 50.9615 39.1225C50.6993 38.0213 50.2633 36.9742 49.6673 36.012C49.5104 35.7585 49.4891 35.4444 49.6101 35.1723L50.3339 33.5467L48.6202 31.8416L46.987 32.5642C46.7132 32.6853 46.3969 32.6643 46.1419 32.5079C45.1746 31.9148 44.1221 31.481 43.0186 31.22C42.7271 31.1511 42.4886 30.9435 42.3811 30.6653ZM40.5265 34.3259C44.5653 34.3259 47.8401 37.5805 47.8401 41.5991C47.8401 45.6176 44.5652 48.876 40.5265 48.876C36.4875 48.876 33.2166 45.6178 33.2166 41.5991C33.2166 37.5804 36.4874 34.3259 40.5265 34.3259ZM40.5265 36.1323C37.4906 36.1323 35.0321 38.5785 35.0321 41.5991C35.0321 44.6199 37.4904 47.0696 40.5265 47.0696C43.5626 47.0696 46.0245 44.62 46.0245 41.5991C46.0245 38.5784 43.5625 36.1323 40.5265 36.1323ZM37.2927 42.1275C36.9385 41.775 36.9385 41.2026 37.2927 40.8501C37.647 40.4976 38.2223 40.4976 38.5766 40.8501L39.7389 42.0067L42.48 39.2793C42.8343 38.9268 43.4096 38.9268 43.7639 39.2793C44.1181 39.6317 44.1181 40.2042 43.7639 40.5566L40.3808 43.9226C40.0263 44.2754 39.4516 44.2754 39.0971 43.9226L37.2927 42.1275Z" fill="#C916CF"/>
</svg>
