<svg width="58" height="47" viewBox="0 0 58 47" fill="none" xmlns="http://www.w3.org/2000/svg">
<path fill-rule="evenodd" clip-rule="evenodd" d="M11.2155 21.6786C12.228 21.6786 13.0519 22.506 13.0519 23.5217C13.0519 24.5373 12.228 25.3641 11.2155 25.3641C10.2032 25.3641 9.37995 24.5375 9.37995 23.5217C9.37995 22.5059 10.2032 21.6786 11.2155 21.6786ZM23.054 9.95372C24.0663 9.95372 24.8897 10.7804 24.8897 11.796C24.8897 12.8118 24.0665 13.6392 23.054 13.6392C22.0409 13.6392 21.2177 12.8118 21.2177 11.796C21.2177 10.7804 22.0409 9.95372 23.054 9.95372ZM34.9065 21.6786C35.9188 21.6786 36.7428 22.506 36.7428 23.5217C36.7428 24.5373 35.9188 25.3641 34.9065 25.3641C33.894 25.3641 33.0701 24.5375 33.0701 23.5217C33.0701 22.5059 33.894 21.6786 34.9065 21.6786ZM46.7435 9.95372C47.7558 9.95372 48.5798 10.7804 48.5798 11.796C48.5798 12.8118 47.7558 13.6392 46.7435 13.6392C45.7311 13.6392 44.907 12.8118 44.907 11.796C44.9072 10.7804 45.7311 9.95372 46.7435 9.95372ZM11.2155 27.0667C13.9684 27.0667 15.6419 24.0432 14.2519 21.7102L21.2096 14.818C22.341 15.5164 23.7681 15.517 24.8992 14.8173L31.8686 21.7124C30.4817 24.0509 32.1589 27.0667 34.9065 27.0667C37.6509 27.0667 39.3359 24.0548 37.9422 21.7102L44.8991 14.818C47.2363 16.2587 50.2762 14.5695 50.2762 11.7959C50.2762 9.84177 48.6912 8.25167 46.7435 8.25167C43.9997 8.25167 42.3139 11.2626 43.7078 13.6074L36.7501 20.4996C35.619 19.8003 34.1909 19.8014 33.0599 20.5003L26.0905 13.6052C27.4802 11.2673 25.8015 8.25167 23.0541 8.25167C20.3115 8.25167 18.625 11.2591 20.0177 13.6074L13.06 20.4996C10.7284 19.0603 7.68294 20.744 7.68294 23.5216C7.68281 25.4758 9.26774 27.0667 11.2155 27.0667ZM43.9827 44.2973V20.7283H49.5504V44.2973H43.9827ZM32.1384 44.2973V31.5818H37.7053V44.2974L32.1384 44.2973ZM20.2933 44.2973V22.7884H25.8618V44.2973H20.2933ZM8.44962 44.2973V34.1169H14.0166V44.2973H8.44962ZM15.7137 40.8134H18.5962V44.2973H15.7137V40.8134ZM27.5588 40.8134H30.4412V44.2973H27.5588V40.8134ZM39.4025 40.8134H42.2857V44.2973H39.4025V40.8134ZM5.46378 39.1109H6.75248V33.266C6.75248 32.7961 7.13296 32.4143 7.60068 32.4143H14.8655C15.3332 32.4143 15.7137 32.7961 15.7137 33.266V39.1109H18.5962V21.9374C18.5962 21.466 18.9767 21.0857 19.4451 21.0857H26.71C27.1784 21.0857 27.5589 21.466 27.5589 21.9374V39.1107H30.4413V30.73C30.4413 30.26 30.8211 29.879 31.2895 29.879H38.5536C39.0236 29.879 39.4026 30.26 39.4026 30.73V39.1107H42.2858V19.8773C42.2858 19.4074 42.6663 19.0264 43.1347 19.0264H50.3988C50.8673 19.0264 51.2478 19.4074 51.2478 19.8773V39.1107H52.5358C53.7454 39.1107 54.7299 38.1238 54.7299 36.9095V4.9039C54.7299 3.69103 53.7454 2.70256 52.5358 2.70256H5.46378C4.25486 2.70256 3.26898 3.69103 3.26898 4.9039V36.9095C3.26898 38.1238 4.25486 39.1109 5.46378 39.1109ZM56.1519 44.2973H51.2475V40.8134H52.5356C54.6806 40.8134 56.4268 39.0622 56.4268 36.9095V4.9039C56.4268 2.75118 54.6806 1 52.5356 1H5.46378C3.31881 1 1.57259 2.75118 1.57259 4.9039V36.9095C1.57259 39.0622 3.31881 40.8134 5.46378 40.8134H6.75248V44.2973H1.8482C1.37974 44.2973 1 44.6783 1 45.1483C1 45.619 1.37974 46 1.8482 46H56.1518C56.6195 46 57 45.619 57 45.1483C57.0001 44.6783 56.6195 44.2973 56.1519 44.2973Z" fill="#C916CF" stroke="#C916CF" stroke-width="0.9"/>
</svg>
