<svg width="82" height="77" viewBox="0 0 82 77" fill="none" xmlns="http://www.w3.org/2000/svg">
<path d="M74.8413 26.1333H68.9841V22.8793C68.9841 10.3185 58.7646 0.101562 46.2064 0.101562H35.7937C23.2354 0.101562 13.0159 10.3185 13.0159 22.8793V26.1333H7.15873C3.21329 26.1333 0 29.3441 0 33.292V48.9111C0 52.8591 3.21329 56.0698 7.15873 56.0698H13.2132C14.1989 64.8304 21.5652 71.6889 30.5873 71.6889H31.5432C32.3999 74.6842 35.1324 76.8952 38.3968 76.8952H43.6032C47.5486 76.8952 50.7619 73.6845 50.7619 69.7365C50.7619 65.7885 47.5486 62.5778 43.6032 62.5778H38.3968C35.1324 62.5778 32.3999 64.7888 31.5432 67.7841H30.5873C23.0523 67.7841 16.9206 61.6524 16.9206 54.1174V22.8793C16.9206 12.4717 25.386 4.00632 35.7937 4.00632H46.2064C56.614 4.00632 65.0794 12.4717 65.0794 22.8793V54.1174C65.0794 55.1953 65.9539 56.0698 67.0317 56.0698H74.8413C78.7867 56.0698 82 52.8591 82 48.9111V33.292C82 29.3441 78.7867 26.1333 74.8413 26.1333ZM38.3968 66.4825H43.6032C45.3979 66.4825 46.8571 67.9417 46.8571 69.7365C46.8571 71.5312 45.3979 72.9905 43.6032 72.9905H38.3968C36.6021 72.9905 35.1429 71.5312 35.1429 69.7365C35.1429 67.9417 36.6021 66.4825 38.3968 66.4825ZM3.90476 48.9111V33.292C3.90476 31.4973 5.36396 30.0381 7.15873 30.0381H13.0159V52.1651H7.15873C5.36396 52.1651 3.90476 50.7059 3.90476 48.9111ZM78.0952 48.9111C78.0952 50.7059 76.636 52.1651 74.8413 52.1651H68.9841V30.0381H74.8413C76.636 30.0381 78.0952 31.4973 78.0952 33.292V48.9111Z" fill="#C916CF"/>
<path d="M57.1249 28.8451H56.5438C56.4121 27.596 55.8176 26.4392 54.8747 25.5979C53.9319 24.7566 52.7075 24.2902 51.4375 24.2886H41.9235V22.4547C42.8208 22.2318 43.6048 21.6921 44.1279 20.9374C44.6509 20.1826 44.877 19.2648 44.7634 18.3567C44.6499 17.4486 44.2046 16.6129 43.5113 16.0069C42.8181 15.4009 41.9248 15.0664 40.9996 15.0664C40.0744 15.0664 39.181 15.4009 38.4878 16.0069C37.7946 16.6129 37.3493 17.4486 37.2357 18.3567C37.1222 19.2648 37.3482 20.1826 37.8713 20.9374C38.3943 21.6921 39.1784 22.2318 40.0757 22.4547V24.2887H30.5617C29.2918 24.2902 28.0674 24.7566 27.1245 25.5979C26.1816 26.4392 25.5871 27.596 25.4554 28.8451H24.8743C23.9817 28.8461 23.126 29.1972 22.4949 29.8213C21.8638 30.4455 21.5088 31.2917 21.5078 32.1744V39.9439C21.5088 40.8266 21.8638 41.6728 22.4949 42.297C23.126 42.9211 23.9817 43.2722 24.8743 43.2732H25.4554C25.587 44.5224 26.1816 45.6791 27.1244 46.5205C28.0673 47.3618 29.2917 47.8282 30.5616 47.8298H36.8347L40.1995 53.5932C40.2806 53.7321 40.3972 53.8474 40.5377 53.9276C40.6781 54.0078 40.8374 54.05 40.9996 54.05C41.1618 54.05 41.3211 54.0078 41.4616 53.9276C41.602 53.8474 41.7186 53.7321 41.7997 53.5932L45.1642 47.8298H51.4373C52.7073 47.8283 53.9317 47.3619 54.8746 46.5205C55.8175 45.6792 56.4121 44.5224 56.5438 43.2732H57.125C58.0175 43.2722 58.8732 42.9211 59.5043 42.297C60.1354 41.6728 60.4904 40.8266 60.4914 39.9439V32.1744C60.4904 31.2917 60.1354 30.4455 59.5043 29.8213C58.8732 29.1972 58.0174 28.8461 57.1249 28.8451ZM39.055 18.8172C39.055 18.4368 39.169 18.065 39.3827 17.7487C39.5964 17.4324 39.9001 17.1859 40.2555 17.0404C40.6108 16.8948 41.0018 16.8567 41.3791 16.9309C41.7563 17.0051 42.1028 17.1883 42.3748 17.4573C42.6467 17.7263 42.832 18.069 42.907 18.442C42.982 18.8151 42.9435 19.2018 42.7963 19.5532C42.6491 19.9046 42.3998 20.205 42.08 20.4163C41.7602 20.6276 41.3842 20.7404 40.9996 20.7404C40.484 20.7398 39.9897 20.537 39.6252 20.1764C39.2606 19.8159 39.0555 19.3271 39.055 18.8172ZM23.3556 39.9439V32.1744C23.356 31.7762 23.5162 31.3945 23.8009 31.1129C24.0856 30.8313 24.4716 30.6729 24.8743 30.6724H25.4286V41.4461H24.8743C24.4716 41.4457 24.0855 41.2872 23.8008 41.0056C23.5161 40.724 23.356 40.3421 23.3556 39.9439ZM54.7227 42.7534C54.7218 43.6148 54.3753 44.4407 53.7594 45.0498C53.1435 45.6589 52.3085 46.0015 51.4374 46.0025H44.6309C44.4688 46.0025 44.3095 46.0448 44.169 46.1249C44.0286 46.2051 43.912 46.3205 43.8309 46.4594L40.9996 51.309L38.1683 46.4593C38.0872 46.3204 37.9706 46.2051 37.8301 46.1249C37.6897 46.0447 37.5304 46.0025 37.3682 46.0025H30.5617C29.6907 46.0015 28.8556 45.6588 28.2397 45.0497C27.6238 44.4406 27.2774 43.6148 27.2764 42.7534V29.365C27.2774 28.5036 27.6238 27.6778 28.2397 27.0687C28.8556 26.4596 29.6907 26.1169 30.5617 26.116H51.4374C52.3085 26.1169 53.1435 26.4596 53.7594 27.0687C54.3753 27.6778 54.7218 28.5036 54.7227 29.365V42.7534ZM58.6436 39.9439C58.6432 40.3421 58.483 40.7239 58.1983 41.0055C57.9136 41.287 57.5276 41.4454 57.1249 41.4459H56.5706V30.6722H57.1249C57.5276 30.6727 57.9136 30.8311 58.1983 31.1126C58.483 31.3942 58.6432 31.776 58.6436 32.1742V39.9439ZM33.6115 30.7953C32.9866 30.7953 32.3758 30.9786 31.8562 31.3219C31.3366 31.6652 30.9317 32.1532 30.6926 32.7242C30.4534 33.2951 30.3909 33.9233 30.5128 34.5294C30.6347 35.1355 30.9356 35.6923 31.3775 36.1292C31.8193 36.5662 32.3823 36.8638 32.9952 36.9843C33.608 37.1049 34.2433 37.043 34.8206 36.8065C35.3979 36.57 35.8914 36.1695 36.2385 35.6557C36.5857 35.1418 36.7709 34.5377 36.7709 33.9198C36.77 33.0914 36.4368 32.2972 35.8445 31.7115C35.2522 31.1257 34.4491 30.7962 33.6115 30.7953ZM33.6115 35.217C33.3521 35.217 33.0985 35.1409 32.8828 34.9983C32.6671 34.8558 32.499 34.6532 32.3997 34.4162C32.3004 34.1791 32.2744 33.9183 32.325 33.6667C32.3756 33.4151 32.5006 33.1839 32.684 33.0025C32.8675 32.8211 33.1012 32.6976 33.3556 32.6475C33.61 32.5975 33.8738 32.6231 34.1135 32.7213C34.3531 32.8195 34.558 32.9858 34.7021 33.1991C34.8462 33.4124 34.9232 33.6632 34.9232 33.9198C34.9228 34.2637 34.7845 34.5934 34.5386 34.8366C34.2927 35.0798 33.9593 35.2166 33.6115 35.217ZM48.3877 30.7953C47.7629 30.7953 47.152 30.9786 46.6324 31.3219C46.1129 31.6652 45.7079 32.1532 45.4688 32.7242C45.2297 33.2951 45.1671 33.9233 45.289 34.5294C45.4109 35.1355 45.7118 35.6923 46.1537 36.1292C46.5956 36.5662 47.1585 36.8638 47.7714 36.9843C48.3843 37.1049 49.0195 37.043 49.5968 36.8065C50.1742 36.57 50.6676 36.1695 51.0147 35.6557C51.3619 35.1418 51.5472 34.5377 51.5472 33.9198C51.5462 33.0914 51.213 32.2972 50.6207 31.7115C50.0284 31.1257 49.2254 30.7962 48.3877 30.7953ZM48.3877 35.217C48.1283 35.217 47.8747 35.1409 47.659 34.9983C47.4433 34.8558 47.2752 34.6532 47.1759 34.4162C47.0766 34.1791 47.0507 33.9183 47.1013 33.6667C47.1519 33.4151 47.2768 33.1839 47.4602 33.0025C47.6437 32.8211 47.8774 32.6976 48.1318 32.6475C48.3863 32.5975 48.65 32.6231 48.8897 32.7213C49.1294 32.8195 49.3342 32.9858 49.4783 33.1991C49.6225 33.4124 49.6994 33.6632 49.6994 33.9198C49.699 34.2637 49.5607 34.5934 49.3148 34.8366C49.0689 35.0798 48.7355 35.2166 48.3877 35.217ZM45.952 40.1112C45.4797 41.0063 44.7683 41.7564 43.8952 42.2797C43.022 42.8031 42.0206 43.0798 40.9996 43.0798C39.9786 43.0798 38.9771 42.8031 38.104 42.2797C37.2309 41.7564 36.5195 41.0063 36.0471 40.1112C35.9893 40.0047 35.9535 39.8879 35.9416 39.7675C35.9298 39.6472 35.9422 39.5258 35.9782 39.4102C36.0142 39.2947 36.073 39.1874 36.1512 39.0945C36.2294 39.0016 36.3255 38.925 36.4339 38.869C36.5422 38.8131 36.6608 38.779 36.7826 38.7688C36.9043 38.7585 37.027 38.7722 37.1434 38.8091C37.2598 38.846 37.3676 38.9054 37.4606 38.9839C37.5536 39.0623 37.63 39.1582 37.6853 39.266C38.0013 39.8652 38.4774 40.3672 39.0617 40.7175C39.6461 41.0678 40.3163 41.253 40.9997 41.253C41.683 41.253 42.3532 41.0678 42.9376 40.7175C43.5219 40.3672 43.998 39.8652 44.3141 39.266C44.3693 39.1582 44.4457 39.0623 44.5387 38.9839C44.6317 38.9054 44.7395 38.846 44.8559 38.8091C44.9723 38.7722 45.095 38.7585 45.2168 38.7688C45.3386 38.779 45.4571 38.8131 45.5654 38.869C45.6738 38.925 45.7699 39.0016 45.8481 39.0945C45.9263 39.1874 45.9851 39.2947 46.0211 39.4102C46.0571 39.5258 46.0695 39.6472 46.0577 39.7675C46.0458 39.8879 46.01 40.0047 45.9522 40.1112H45.952Z" fill="#C916CF"/>
</svg>
