<svg width="63" height="63" viewBox="0 0 63 63" fill="none" xmlns="http://www.w3.org/2000/svg">
<path d="M26.3687 24.3879H30.5358L31.5265 28.681L33.507 28.2237L30.2757 14.2266H26.6268L23.3965 28.2237L25.3769 28.681L26.3687 24.3879ZM28.66 16.2588L30.0664 22.3556H26.8371L28.2434 16.2588H28.66Z" fill="#C916CF"/>
<path d="M35.5645 28.4524H37.5967V22.3556H39.629C41.8705 22.3556 43.6935 20.5327 43.6935 18.2911C43.6935 16.0495 41.8705 14.2266 39.629 14.2266H35.5645V28.4524ZM37.5967 16.2588H39.629C40.7498 16.2588 41.6612 17.1703 41.6612 18.2911C41.6612 19.4119 40.7498 20.3233 39.629 20.3233H37.5967V16.2588Z" fill="#C916CF"/>
<path d="M50.8058 26.4201H48.7735V16.2588H50.8058V14.2266H44.709V16.2588H46.7412V26.4201H44.709V28.4524H50.8058V26.4201Z" fill="#C916CF"/>
<path d="M56.9032 18.3706C56.9032 18.3442 56.9032 18.3178 56.9032 18.2903C56.9032 12.1275 51.8886 7.1129 45.7258 7.1129C45.0379 7.1129 44.3581 7.19826 43.6875 7.32223C41.8025 3.0179 37.5074 0 32.5161 0C25.7924 0 20.3226 5.46982 20.3226 12.1935C20.3226 12.8916 20.3886 13.5846 20.5065 14.2685C15.8526 14.6902 12.1935 18.6094 12.1935 23.371C12.1935 25.2762 12.8022 27.1408 13.9037 28.6843L13.8061 29.0969C12.6274 29.4352 11.4934 29.9047 10.4204 30.5011L8.08127 29.0532L2.63177 34.5027L4.07976 36.8418C3.48431 37.9148 3.01384 39.0488 2.67547 40.2275L0 40.8565V48.5628L2.67648 49.1928C3.01485 50.3715 3.48431 51.5055 4.08077 52.5786L2.63279 54.9177L8.08229 60.3672L10.4214 58.9192C11.4945 59.5147 12.6285 59.9851 13.8072 60.3235L14.4372 63H22.1435L22.7735 60.3235C23.9522 59.9851 25.0862 59.5157 26.1592 58.9192L28.4984 60.3672L33.9479 54.9177L32.4999 52.5786C32.8179 52.0055 33.0943 51.4121 33.3402 50.8064H52.8387V49.7903C52.8387 46.9889 50.5595 44.7097 47.7581 44.7097H46.7419V40.6452H57.9194C60.7208 40.6452 63 38.366 63 35.5645V25.4032C63 21.8397 60.3652 18.8797 56.9032 18.3706ZM21.3387 16.2581C22.2614 16.2581 23.1596 16.4318 24.006 16.7743L24.7692 14.8904C24.0711 14.6079 23.3445 14.425 22.6038 14.3223C22.4534 13.6243 22.3548 12.915 22.3548 12.1935C22.3548 6.59061 26.9132 2.03226 32.5161 2.03226C38.1191 2.03226 42.6774 6.59061 42.6774 12.1935H44.7097C44.7097 11.1805 44.5715 10.2019 44.3378 9.25998C44.796 9.18987 45.2584 9.14516 45.7258 9.14516C50.7678 9.14516 54.871 13.2483 54.871 18.2903C54.871 18.6002 54.8547 18.9051 54.8242 19.2069L54.7633 20.3226H55.8871C58.6886 20.3226 60.9677 22.6018 60.9677 25.4032C60.9677 28.2047 58.6886 30.4839 55.8871 30.4839H29.9311L28.4994 29.0521L26.1602 30.5001C25.0872 29.9047 23.9532 29.4342 22.7745 29.0958L22.1435 26.4194H14.934C14.4819 25.4744 14.2258 24.4491 14.2258 23.371C14.2258 19.4487 17.4165 16.2581 21.3387 16.2581ZM32.2397 47.4969L32.0914 48.1015C31.749 49.4997 31.1952 50.8339 30.4463 52.0685L30.1231 52.6009L31.372 54.619L28.1986 57.7923L26.1806 56.5435L25.6481 56.8666C24.4145 57.6155 23.0793 58.1683 21.6811 58.5118L21.0765 58.6601L20.5339 60.9677H16.0467L15.5031 58.6591L14.8985 58.5107C13.5003 58.1683 12.1661 57.6145 10.9315 56.8656L10.3991 56.5425L8.38103 57.7913L5.20766 54.618L6.45648 52.5999L6.13335 52.0675C5.38447 50.8339 4.83169 49.4987 4.48824 48.1005L4.33989 47.4959L2.03226 46.9533V42.4661L4.3409 41.9224L4.48926 41.3178C4.83169 39.9196 5.38548 38.5855 6.13437 37.3509L6.4575 36.8184L5.20868 34.8004L8.38205 31.627L10.4001 32.8758L10.9325 32.5527C12.1661 31.8038 13.5013 31.251 14.8995 30.9076L15.5041 30.7592L16.0467 28.4516H20.5339L21.0776 30.7603L21.6822 30.9086C23.0804 31.251 24.4145 31.8048 25.6491 32.5537L26.1816 32.8769L28.1996 31.628L31.373 34.8014L30.1242 36.8194L30.4473 37.3519C31.1952 38.5844 31.749 39.9196 32.0924 41.3189L32.2408 41.9235L34.5484 42.4661V46.9533L32.2397 47.4969ZM50.6327 48.7742H35.6824L36.5806 48.5628V46.7419H47.7581C49.0831 46.7419 50.213 47.5914 50.6327 48.7742ZM44.7097 44.7097H36.5806V40.8565L35.6824 40.6452H44.7097V44.7097ZM60.9677 35.5645C60.9677 37.2452 59.6 38.6129 57.9194 38.6129H33.3402C33.0943 38.0073 32.8179 37.4139 32.4999 36.8408L33.9479 34.5016L31.9634 32.5161H55.8871C57.8767 32.5161 59.6752 31.6931 60.9677 30.3721V35.5645Z" fill="#C916CF"/>
<path d="M56.9033 34.5469H58.9356V36.5791H56.9033V34.5469Z" fill="#C916CF"/>
<path d="M52.8389 34.5469H54.8711V36.5791H52.8389V34.5469Z" fill="#C916CF"/>
<path d="M48.7734 34.5469H50.8057V36.5791H48.7734V34.5469Z" fill="#C916CF"/>
<path d="M18.2902 32.5156C11.5665 32.5156 6.09668 37.9854 6.09668 44.7092C6.09668 51.4329 11.5665 56.9027 18.2902 56.9027C25.014 56.9027 30.4838 51.4329 30.4838 44.7092C30.4838 37.9854 25.014 32.5156 18.2902 32.5156ZM18.2902 54.8705C12.6873 54.8705 8.12894 50.3121 8.12894 44.7092C8.12894 39.1062 12.6873 34.5479 18.2902 34.5479C23.8932 34.5479 28.4515 39.1062 28.4515 44.7092C28.4515 50.3121 23.8932 54.8705 18.2902 54.8705Z" fill="#C916CF"/>
<path d="M18.2901 38.6133C14.9278 38.6133 12.1934 41.3477 12.1934 44.7101C12.1934 48.0724 14.9278 50.8068 18.2901 50.8068C21.6525 50.8068 24.3869 48.0724 24.3869 44.7101C24.3869 41.3477 21.6525 38.6133 18.2901 38.6133ZM18.2901 48.7746C16.0486 48.7746 14.2256 46.9516 14.2256 44.7101C14.2256 42.4685 16.0486 40.6455 18.2901 40.6455C20.5317 40.6455 22.3546 42.4685 22.3546 44.7101C22.3546 46.9516 20.5317 48.7746 18.2901 48.7746Z" fill="#C916CF"/>
<path d="M28.2052 7.8801C29.3575 6.72882 30.8878 6.09476 32.5167 6.09476C34.1455 6.09476 35.6758 6.72882 36.8281 7.8801L38.2649 6.44329C36.7295 4.90792 34.6881 4.0625 32.5167 4.0625C30.3452 4.0625 28.3038 4.90792 26.7684 6.44329C26.428 6.78369 26.1161 7.15458 25.8438 7.54579L27.5112 8.70824C27.7155 8.4156 27.9492 8.13718 28.2052 7.8801Z" fill="#C916CF"/>
<path d="M26.672 10.4503L24.7241 9.87109C24.5005 10.623 24.3867 11.4044 24.3867 12.1929H26.419C26.419 11.6005 26.5043 11.0142 26.672 10.4503Z" fill="#C916CF"/>
</svg>
