<svg width="68" height="54" viewBox="0 0 68 54" fill="none" xmlns="http://www.w3.org/2000/svg">
<path d="M65.2432 34.2137H59.861V26.9313C59.861 26.1069 59.3359 25.5573 58.5483 25.5573H35.3127V19.6489H40.695C42.2703 19.6489 43.4517 18.4122 43.4517 16.7634V2.8855C43.4517 1.23664 42.2703 0 40.695 0H27.305C25.7297 0 24.5483 1.23664 24.5483 2.8855V16.9008C24.5483 18.5496 25.7297 19.7863 27.305 19.7863H32.6873V25.5573H9.45174C8.66409 25.5573 8.139 26.1069 8.139 26.9313V34.2137H2.75676C1.18147 34.2137 0 35.4504 0 37.0992V51.1145C0 52.7634 1.18147 54 2.75676 54H16.1467C17.722 54 18.9035 52.7634 18.9035 51.1145V37.0992C18.9035 35.4504 17.722 34.2137 16.1467 34.2137H10.7645V28.3053H32.6873V34.2137H27.305C25.7297 34.2137 24.5483 35.4504 24.5483 37.0992V51.1145C24.5483 52.7634 25.7297 54 27.305 54H40.695C42.2703 54 43.4517 52.7634 43.4517 51.1145V37.0992C43.4517 35.4504 42.2703 34.2137 40.695 34.2137H35.3127V28.3053H57.2355V34.2137H51.8533C50.278 34.2137 49.0965 35.4504 49.0965 37.0992V51.1145C49.0965 52.7634 50.278 54 51.8533 54H65.2432C66.8185 54 68 52.7634 68 51.1145V37.0992C68 35.4504 66.6873 34.2137 65.2432 34.2137ZM16.278 37.0992C16.1467 36.9618 16.278 36.9618 16.278 37.0992V51.1145C16.278 51.2519 16.278 51.2519 16.1467 51.2519H2.75676C2.62548 51.2519 2.62548 51.2519 2.62548 51.1145V37.0992C2.62548 36.9618 2.62548 36.9618 2.75676 36.9618L16.278 37.0992ZM40.8263 37.0992C40.695 36.9618 40.8263 36.9618 40.8263 37.0992V51.1145C40.8263 51.2519 40.8263 51.2519 40.695 51.2519H27.305C27.1737 51.2519 27.1737 51.2519 27.1737 51.1145V37.0992C27.1737 36.9618 27.1737 36.9618 27.305 36.9618L40.8263 37.0992ZM27.1737 16.7634C27.1737 16.9008 27.305 16.9008 27.1737 16.7634V2.8855C27.1737 2.74809 27.1737 2.74809 27.305 2.74809H40.695C40.8263 2.74809 40.8263 2.74809 40.8263 2.8855V16.9008C40.8263 17.0382 40.8263 17.0382 40.695 17.0382L27.1737 16.7634ZM65.3745 50.9771C65.2432 51.1145 65.3745 51.1145 65.3745 50.9771L51.8533 51.1145C51.722 51.1145 51.722 51.1145 51.722 50.9771V37.0992C51.722 36.9618 51.722 36.9618 51.8533 36.9618H65.2432C65.3745 36.9618 65.3745 36.9618 65.3745 37.0992V50.9771Z" fill="#C916CF"/>
</svg>
