<svg width="60" height="55" viewBox="0 0 60 55" fill="none" xmlns="http://www.w3.org/2000/svg">
<path d="M7.02622 5.85519C7.02622 6.50195 6.50195 7.02622 5.85519 7.02622C5.20842 7.02622 4.68415 6.50195 4.68415 5.85519C4.68415 5.20842 5.20842 4.68415 5.85519 4.68415C6.50195 4.68415 7.02622 5.20842 7.02622 5.85519ZM12.2959 5.85519C12.2959 6.50195 11.7716 7.02622 11.1249 7.02622C10.4781 7.02622 9.95382 6.50195 9.95382 5.85519C9.95382 5.20842 10.4781 4.68415 11.1249 4.68415C11.7716 4.68415 12.2959 5.20842 12.2959 5.85519ZM17.5656 5.85519C17.5656 6.50195 17.0413 7.02622 16.3945 7.02622C15.7478 7.02622 15.2235 6.50195 15.2235 5.85519C15.2235 5.20842 15.7478 4.68415 16.3945 4.68415C17.0413 4.68415 17.5656 5.20842 17.5656 5.85519ZM25.1773 41.6889C24.5308 41.6889 24.0063 42.2147 24.0063 42.86C24.0063 43.5052 24.5308 44.031 25.1773 44.031C25.8225 44.031 26.3483 43.5052 26.3483 42.86C26.3483 42.2147 25.8225 41.6889 25.1773 41.6889ZM23.4207 15.2235V32.4377C23.4207 33.0844 22.8964 33.6088 22.2497 33.6088H5.85519C5.20854 33.6088 4.68415 33.0844 4.68415 32.4377V15.2235C4.68415 14.5768 5.20854 14.0524 5.85519 14.0524H22.2497C22.8964 14.0524 23.4207 14.5768 23.4207 15.2235ZM21.0787 16.3945H7.02622V31.2667H21.0787V16.3945ZM26.9339 17.2142H38.9955C39.6422 17.2142 40.1666 16.6899 40.1666 16.0432C40.1666 15.3966 39.6422 14.8722 38.9955 14.8722H26.9339C26.2872 14.8722 25.7628 15.3966 25.7628 16.0432C25.7628 16.6899 26.2872 17.2142 26.9339 17.2142ZM26.9339 21.8984H36.6535C37.3001 21.8984 37.8245 21.374 37.8245 20.7274C37.8245 20.0807 37.3001 19.5563 36.6535 19.5563H26.9339C26.2872 19.5563 25.7628 20.0807 25.7628 20.7274C25.7628 21.374 26.2872 21.8984 26.9339 21.8984ZM5.85519 35.9508C5.20854 35.9508 4.68415 36.4752 4.68415 37.1219C4.68415 37.7685 5.20854 38.2929 5.85519 38.2929H14.0524C14.6991 38.2929 15.2235 37.7685 15.2235 37.1219C15.2235 36.4752 14.6991 35.9508 14.0524 35.9508H5.85519ZM53.1452 33.7212C52.5866 35.3044 52.5889 37.0575 53.1452 38.6489C53.3653 39.2789 54.068 39.6338 54.7811 39.3187L56.1091 38.7004C57.6795 37.9721 59.4887 39.0143 59.4887 40.8001V45.7876C59.4887 47.0811 58.4402 48.1296 57.1466 48.1296H50.5291L51.179 49.5197C52.1229 51.5256 51.0143 53.6935 49.1508 54.3279C46.9964 55.0615 44.7525 55.069 42.6583 54.3275C40.8035 53.6707 39.6868 51.5256 40.6297 49.5201L41.28 48.1295L34.6627 48.1296C33.3713 48.1296 32.3206 47.079 32.3206 45.7876V44.031H30.447C29.8004 44.031 29.2759 43.5052 29.2759 42.86C29.2759 42.2147 29.8004 41.6889 30.447 41.6889H32.3206V40.8006C32.3206 39.0144 34.1301 37.9718 35.6998 38.7L37.0281 39.3184C37.7415 39.634 38.4441 39.2788 38.6641 38.6492C39.2203 37.0579 39.2223 35.3049 38.6641 33.7208C38.4652 33.156 37.7678 32.7173 37.0603 33.0366L35.6515 33.6927C34.1301 34.3757 32.3206 33.3633 32.3206 31.5161V26.5825C32.3206 25.289 33.3692 24.2405 34.6627 24.2405H41.28L40.6297 22.85C39.5999 20.4063 41.176 18.5832 42.6583 18.0425C45.1265 17.1425 47.3193 17.5651 48.0125 17.7177V11.7104H2.34207V41.6889H19.8657C20.4886 41.6889 21.0337 42.1573 21.076 42.7787C21.1224 43.4605 20.5798 44.031 19.9078 44.031H1.17104C0.524273 44.031 0 43.5067 0 42.86V3.51311C0 1.57282 1.57282 0 3.51311 0H46.8415C48.7818 0 50.3546 1.57282 50.3546 3.51311V18.7728C51.3113 19.6403 51.9226 21.087 51.179 22.8505L50.5291 24.2405H57.1466C58.4402 24.2405 59.4887 25.289 59.4887 26.5825V31.5161C59.4887 33.3629 57.6794 34.3758 56.1583 33.6931L54.7495 33.0361C54.041 32.7176 53.3443 33.1556 53.1452 33.7212ZM48.0125 9.3683V3.51311C48.0125 2.8674 47.4872 2.34207 46.8415 2.34207H3.51311C2.8674 2.34207 2.34207 2.8674 2.34207 3.51311V9.3683H48.0125ZM50.9366 32.9401C51.7189 30.7268 54.1663 30.1366 55.7379 30.913L57.1466 31.57V26.5825H50.5291C48.6999 26.5825 47.7198 24.6726 48.4083 23.2486L49.0583 21.8574C49.3686 21.1091 48.9572 20.4675 48.3732 20.2519C46.8264 19.681 44.9339 19.715 43.4358 20.2518C42.8501 20.4617 42.4406 21.109 42.7513 21.8579L43.4016 23.2484C44.0896 24.6731 43.1093 26.5827 41.28 26.5827H34.6627V31.5696L36.0715 30.9135C37.6431 30.1372 40.091 30.7266 40.8721 32.9399C41.6109 35.0332 41.6228 37.3413 40.8721 39.4305C40.2723 41.0998 38.2853 42.4295 36.0715 41.4567L34.6628 40.8007L34.6627 45.7876H41.28C43.1055 45.7876 44.0953 47.6952 43.4016 49.1217L42.7513 50.5122C42.418 51.2386 42.8717 51.9473 43.4358 52.1183C45.1454 52.6362 46.4978 52.7043 48.3732 52.1183C48.9362 51.9423 49.3908 51.2389 49.0583 50.5128L48.4083 49.1216C47.7139 47.6953 48.7034 45.7877 50.5291 45.7877H57.1466V40.8002L55.7379 41.4572C53.5234 42.4291 51.5374 41.1 50.9366 39.4301C50.186 37.3409 50.1989 35.0327 50.9366 32.9401Z" fill="#C916CF"/>
</svg>
