<svg width="50" height="58" viewBox="0 0 50 58" fill="none" xmlns="http://www.w3.org/2000/svg">
<path d="M34.4973 37.6813C40.551 28.1583 39.79 29.3464 39.9644 29.0981C42.1684 25.9816 43.3333 22.3137 43.3333 18.4906C43.3333 8.35196 35.1266 0 25 0C14.9064 0 6.66667 8.33547 6.66667 18.4906C6.66667 22.3112 7.856 26.0752 10.1322 29.2336L15.5024 37.6814C9.76078 38.5659 0 41.202 0 47.0062C0 49.1221 1.37756 52.1374 7.94022 54.487C12.5227 56.1277 18.5812 57.0312 25 57.0312C37.0028 57.0312 50 53.637 50 47.0062C50 41.201 40.2507 38.5677 34.4973 37.6813ZM12.9166 27.3956C12.8982 27.3669 12.8791 27.3388 12.8591 27.3112C10.965 24.6989 10 21.6029 10 18.4906C10 10.1344 16.7118 3.34167 25 3.34167C33.271 3.34167 40 10.1374 40 18.4906C40 21.6079 39.0532 24.5988 37.2616 27.1423C37.101 27.3546 37.9387 26.05 25 46.4035L12.9166 27.3956ZM25 53.6896C11.8896 53.6896 3.33333 49.8263 3.33333 47.0062C3.33333 45.1108 7.72978 41.9943 17.472 40.7795L23.5944 50.4105C23.9004 50.8919 24.4304 51.1833 24.9999 51.1833C25.5693 51.1833 26.0994 50.8918 26.4053 50.4105L32.5277 40.7795C42.2701 41.9943 46.6667 45.1108 46.6667 47.0062C46.6667 49.8023 38.1874 53.6896 25 53.6896Z" fill="white"/>
<path d="M25.0001 10.1367C20.4051 10.1367 16.6667 13.8844 16.6667 18.4909C16.6667 23.0974 20.4051 26.8451 25.0001 26.8451C29.5951 26.8451 33.3334 23.0974 33.3334 18.4909C33.3334 13.8844 29.5951 10.1367 25.0001 10.1367ZM25.0001 23.5034C22.2431 23.5034 20.0001 21.2548 20.0001 18.4909C20.0001 15.727 22.2431 13.4784 25.0001 13.4784C27.7571 13.4784 30.0001 15.727 30.0001 18.4909C30.0001 21.2548 27.7571 23.5034 25.0001 23.5034Z" fill="white"/>
</svg>
